<svg xmlns="http://www.w3.org/2000/svg" xmlns:xlink="http://www.w3.org/1999/xlink" width="150" zoomAndPan="magnify" viewBox="0 0 112.5 37.5" height="50" preserveAspectRatio="xMidYMid meet" version="1.0"><defs><g/><clipPath id="1234394a9c"><rect x="0" width="80" y="0" height="28"/></clipPath><clipPath id="39900abb73"><path d="M 17 0.578125 L 21 0.578125 L 21 5 L 17 5 Z M 17 0.578125 " clip-rule="nonzero"/></clipPath><clipPath id="858dadd5ef"><rect x="0" width="79" y="0" height="6"/></clipPath><clipPath id="f37b98785d"><path d="M 13.242188 8.167969 L 29.527344 8.167969 L 29.527344 30.375 L 13.242188 30.375 Z M 13.242188 8.167969 " clip-rule="nonzero"/></clipPath><clipPath id="ec5b7cfcb9"><path d="M 4.082031 11.589844 L 21.84375 11.589844 L 21.84375 30.832031 L 4.082031 30.832031 Z M 4.082031 11.589844 " clip-rule="nonzero"/></clipPath><clipPath id="266a123b24"><path d="M 0.0820312 0.605469 L 17.554688 0.605469 L 17.554688 19.789062 L 0.0820312 19.789062 Z M 0.0820312 0.605469 " clip-rule="nonzero"/></clipPath><clipPath id="036c1fd288"><rect x="0" width="18" y="0" height="20"/></clipPath><clipPath id="815fde59a0"><path d="M 7 10 L 10 10 L 10 11 L 7 11 Z M 7 10 " clip-rule="nonzero"/></clipPath><clipPath id="68dc0caa03"><path d="M 6.644531 6.289062 L 11.875 12.53125 L 7.335938 16.332031 L 2.105469 10.09375 Z M 6.644531 6.289062 " clip-rule="nonzero"/></clipPath><clipPath id="6950e902a0"><path d="M 6.644531 6.289062 L 11.875 12.53125 L 7.335938 16.332031 L 2.105469 10.09375 Z M 6.644531 6.289062 " clip-rule="nonzero"/></clipPath><clipPath id="3fdd072f3e"><path d="M 7 8 L 9 8 L 9 11 L 7 11 Z M 7 8 " clip-rule="nonzero"/></clipPath><clipPath id="93658ab6a0"><path d="M 6.644531 6.289062 L 11.875 12.53125 L 7.335938 16.332031 L 2.105469 10.09375 Z M 6.644531 6.289062 " clip-rule="nonzero"/></clipPath><clipPath id="49010dcded"><path d="M 6.644531 6.289062 L 11.875 12.53125 L 7.335938 16.332031 L 2.105469 10.09375 Z M 6.644531 6.289062 " clip-rule="nonzero"/></clipPath><clipPath id="f197191f2a"><path d="M 3 6 L 12 6 L 12 15 L 3 15 Z M 3 6 " clip-rule="nonzero"/></clipPath><clipPath id="d5c30f3885"><path d="M 6.644531 6.289062 L 11.875 12.53125 L 7.335938 16.332031 L 2.105469 10.09375 Z M 6.644531 6.289062 " clip-rule="nonzero"/></clipPath><clipPath id="ac11f77cdc"><path d="M 6.644531 6.289062 L 11.875 12.53125 L 7.335938 16.332031 L 2.105469 10.09375 Z M 6.644531 6.289062 " clip-rule="nonzero"/></clipPath><clipPath id="565c6b9192"><path d="M 5 10 L 8 10 L 8 13 L 5 13 Z M 5 10 " clip-rule="nonzero"/></clipPath><clipPath id="b825af389f"><path d="M 6.644531 6.289062 L 11.875 12.53125 L 7.335938 16.332031 L 2.105469 10.09375 Z M 6.644531 6.289062 " clip-rule="nonzero"/></clipPath><clipPath id="d3269a07d4"><path d="M 6.644531 6.289062 L 11.875 12.53125 L 7.335938 16.332031 L 2.105469 10.09375 Z M 6.644531 6.289062 " clip-rule="nonzero"/></clipPath></defs><g transform="matrix(1, 0, 0, 1, 31, 2)"><g clip-path="url(#1234394a9c)"><g fill="#693e26" fill-opacity="1"><g transform="translate(1.555126, 16.046364)"><g><path d="M 7.671875 -10.734375 C 7.671875 -10.765625 7.695312 -10.800781 7.75 -10.84375 C 7.8125 -10.894531 7.863281 -10.921875 7.90625 -10.921875 C 8.019531 -10.921875 8.082031 -10.863281 8.09375 -10.75 C 8.113281 -10.632812 8.128906 -10.53125 8.140625 -10.4375 C 8.148438 -10.3125 8.160156 -10.207031 8.171875 -10.125 C 8.179688 -10.050781 8.191406 -9.953125 8.203125 -9.828125 C 8.234375 -9.648438 8.269531 -9.394531 8.3125 -9.0625 C 8.363281 -8.738281 8.410156 -8.414062 8.453125 -8.09375 C 8.503906 -7.769531 8.53125 -7.523438 8.53125 -7.359375 C 8.539062 -7.242188 8.550781 -7.140625 8.5625 -7.046875 C 8.582031 -6.960938 8.59375 -6.847656 8.59375 -6.703125 C 8.59375 -6.585938 8.59375 -6.476562 8.59375 -6.375 C 8.59375 -6.28125 8.597656 -6.175781 8.609375 -6.0625 C 8.628906 -5.894531 8.632812 -5.773438 8.625 -5.703125 C 8.613281 -5.640625 8.601562 -5.539062 8.59375 -5.40625 L 8.53125 -4.078125 C 8.488281 -3.566406 8.414062 -2.984375 8.3125 -2.328125 C 8.21875 -1.671875 8.097656 -0.976562 7.953125 -0.25 C 7.804688 0.464844 7.644531 1.179688 7.46875 1.890625 C 7.300781 2.609375 7.125 3.28125 6.9375 3.90625 C 6.75 4.53125 6.5625 5.078125 6.375 5.546875 C 6.3125 5.691406 6.222656 5.882812 6.109375 6.125 C 5.992188 6.375 5.859375 6.59375 5.703125 6.78125 C 5.546875 6.96875 5.367188 7.0625 5.171875 7.0625 L 4.984375 7.0625 C 4.742188 7.0625 4.523438 6.882812 4.328125 6.53125 C 4.128906 6.175781 3.953125 5.707031 3.796875 5.125 C 3.648438 4.550781 3.519531 3.925781 3.40625 3.25 C 3.289062 2.570312 3.191406 1.90625 3.109375 1.25 C 3.035156 0.59375 2.972656 0.0078125 2.921875 -0.5 C 2.878906 -1.007812 2.847656 -1.382812 2.828125 -1.625 C 2.804688 -1.957031 2.785156 -2.300781 2.765625 -2.65625 C 2.753906 -3.019531 2.726562 -3.351562 2.6875 -3.65625 C 2.675781 -3.75 2.671875 -3.835938 2.671875 -3.921875 C 2.679688 -4.015625 2.6875 -4.109375 2.6875 -4.203125 C 2.675781 -4.296875 2.664062 -4.367188 2.65625 -4.421875 C 2.644531 -4.484375 2.640625 -4.578125 2.640625 -4.703125 C 2.640625 -4.773438 2.628906 -4.953125 2.609375 -5.234375 C 2.597656 -5.523438 2.578125 -5.84375 2.546875 -6.1875 C 2.523438 -6.53125 2.488281 -6.835938 2.4375 -7.109375 C 2.394531 -7.378906 2.347656 -7.535156 2.296875 -7.578125 C 2.265625 -7.441406 2.226562 -7.3125 2.1875 -7.1875 C 2.144531 -7.070312 2.109375 -6.953125 2.078125 -6.828125 C 1.960938 -6.421875 1.835938 -5.929688 1.703125 -5.359375 C 1.578125 -4.785156 1.445312 -4.171875 1.3125 -3.515625 C 1.175781 -2.867188 1.050781 -2.21875 0.9375 -1.5625 C 0.820312 -0.914062 0.722656 -0.304688 0.640625 0.265625 C 0.566406 0.835938 0.507812 1.328125 0.46875 1.734375 C 0.425781 2.203125 0.390625 2.613281 0.359375 2.96875 C 0.328125 3.332031 0.300781 3.675781 0.28125 4 C 0.257812 4.320312 0.242188 4.660156 0.234375 5.015625 C 0.222656 5.378906 0.21875 5.804688 0.21875 6.296875 C 0.21875 6.503906 0.226562 6.722656 0.25 6.953125 C 0.28125 7.179688 0.289062 7.375 0.28125 7.53125 C 0.269531 7.695312 0.207031 7.78125 0.09375 7.78125 C -0.0273438 7.78125 -0.101562 7.742188 -0.125 7.671875 C -0.15625 7.609375 -0.179688 7.5 -0.203125 7.34375 L -0.28125 6.203125 C -0.300781 5.804688 -0.300781 5.320312 -0.28125 4.75 C -0.257812 4.175781 -0.222656 3.570312 -0.171875 2.9375 C -0.117188 2.300781 -0.0625 1.6875 0 1.09375 C 0.0625 0.507812 0.117188 0.0078125 0.171875 -0.40625 C 0.203125 -0.59375 0.253906 -0.894531 0.328125 -1.3125 C 0.398438 -1.738281 0.488281 -2.226562 0.59375 -2.78125 C 0.707031 -3.34375 0.828125 -3.914062 0.953125 -4.5 C 1.078125 -5.09375 1.207031 -5.65625 1.34375 -6.1875 C 1.476562 -6.726562 1.601562 -7.1875 1.71875 -7.5625 C 1.832031 -7.9375 1.9375 -8.179688 2.03125 -8.296875 C 2.132812 -8.441406 2.265625 -8.515625 2.421875 -8.515625 C 2.523438 -8.515625 2.628906 -8.46875 2.734375 -8.375 C 2.835938 -8.269531 2.925781 -8.054688 3 -7.734375 C 3.082031 -7.410156 3.148438 -7.050781 3.203125 -6.65625 C 3.265625 -6.257812 3.3125 -5.882812 3.34375 -5.53125 C 3.375 -5.175781 3.390625 -4.914062 3.390625 -4.75 L 3.75 0.328125 C 3.800781 0.773438 3.847656 1.234375 3.890625 1.703125 C 3.929688 2.171875 3.988281 2.675781 4.0625 3.21875 C 4.082031 3.3125 4.109375 3.484375 4.140625 3.734375 C 4.179688 3.992188 4.234375 4.28125 4.296875 4.59375 C 4.359375 4.914062 4.429688 5.222656 4.515625 5.515625 C 4.597656 5.804688 4.6875 6.050781 4.78125 6.25 C 4.875 6.445312 4.972656 6.546875 5.078125 6.546875 C 5.210938 6.546875 5.359375 6.425781 5.515625 6.1875 C 5.671875 5.945312 5.820312 5.632812 5.96875 5.25 C 6.113281 4.863281 6.253906 4.445312 6.390625 4 C 6.535156 3.550781 6.660156 3.117188 6.765625 2.703125 C 6.867188 2.285156 6.957031 1.925781 7.03125 1.625 C 7.101562 1.320312 7.148438 1.128906 7.171875 1.046875 C 7.453125 -0.179688 7.675781 -1.375 7.84375 -2.53125 C 8.007812 -3.6875 8.09375 -4.914062 8.09375 -6.21875 C 8.09375 -6.570312 8.070312 -6.960938 8.03125 -7.390625 C 7.988281 -7.816406 7.9375 -8.238281 7.875 -8.65625 C 7.820312 -9.082031 7.773438 -9.476562 7.734375 -9.84375 C 7.691406 -10.207031 7.671875 -10.503906 7.671875 -10.734375 Z M 7.671875 -10.734375 "/></g></g></g><g fill="#693e26" fill-opacity="1"><g transform="translate(10.695139, 16.046364)"><g><path d="M 0 -1.609375 C 0 -1.828125 0.0507812 -2.097656 0.15625 -2.421875 C 0.257812 -2.753906 0.40625 -3.082031 0.59375 -3.40625 C 0.789062 -3.726562 1.015625 -3.992188 1.265625 -4.203125 C 1.515625 -4.421875 1.773438 -4.53125 2.046875 -4.53125 C 2.296875 -4.53125 2.5 -4.453125 2.65625 -4.296875 C 2.820312 -4.148438 2.921875 -4 2.953125 -3.84375 C 2.984375 -3.695312 2.929688 -3.625 2.796875 -3.625 C 2.691406 -3.625 2.582031 -3.679688 2.46875 -3.796875 C 2.351562 -3.921875 2.222656 -3.984375 2.078125 -3.984375 C 1.960938 -3.984375 1.820312 -3.914062 1.65625 -3.78125 C 1.488281 -3.644531 1.289062 -3.375 1.0625 -2.96875 C 0.957031 -2.800781 0.859375 -2.582031 0.765625 -2.3125 C 0.679688 -2.039062 0.640625 -1.773438 0.640625 -1.515625 C 0.660156 -1.535156 0.664062 -1.539062 0.65625 -1.53125 C 0.65625 -1.53125 0.675781 -1.550781 0.71875 -1.59375 L 0.84375 -1.78125 C 0.925781 -1.90625 1.019531 -2.066406 1.125 -2.265625 C 1.238281 -2.472656 1.351562 -2.675781 1.46875 -2.875 C 1.59375 -3.082031 1.703125 -3.257812 1.796875 -3.40625 C 1.890625 -3.550781 1.960938 -3.625 2.015625 -3.625 C 2.203125 -3.625 2.3125 -3.550781 2.34375 -3.40625 C 2.375 -3.269531 2.382812 -3.101562 2.375 -2.90625 C 2.375 -2.707031 2.394531 -2.503906 2.4375 -2.296875 C 2.507812 -2.015625 2.609375 -1.804688 2.734375 -1.671875 C 2.867188 -1.535156 3.019531 -1.46875 3.1875 -1.46875 C 3.488281 -1.46875 3.816406 -1.648438 4.171875 -2.015625 C 4.316406 -2.148438 4.421875 -2.265625 4.484375 -2.359375 C 4.554688 -2.453125 4.644531 -2.554688 4.75 -2.671875 C 4.820312 -2.773438 4.914062 -2.828125 5.03125 -2.828125 C 5.144531 -2.828125 5.191406 -2.726562 5.171875 -2.53125 C 5.160156 -2.332031 4.957031 -2.039062 4.5625 -1.65625 L 4.078125 -1.265625 C 3.773438 -1.054688 3.476562 -0.953125 3.1875 -0.953125 C 2.925781 -0.953125 2.695312 -1.03125 2.5 -1.1875 C 2.300781 -1.34375 2.148438 -1.535156 2.046875 -1.765625 C 1.941406 -2.003906 1.890625 -2.234375 1.890625 -2.453125 C 1.816406 -2.398438 1.734375 -2.285156 1.640625 -2.109375 C 1.546875 -1.929688 1.441406 -1.738281 1.328125 -1.53125 C 1.210938 -1.320312 1.097656 -1.140625 0.984375 -0.984375 C 0.867188 -0.835938 0.753906 -0.765625 0.640625 -0.765625 C 0.335938 -0.765625 0.15625 -0.832031 0.09375 -0.96875 C 0.03125 -1.101562 0 -1.316406 0 -1.609375 Z M 0 -1.609375 "/></g></g></g><g fill="#693e26" fill-opacity="1"><g transform="translate(15.296883, 16.046364)"><g><path d="M -4.453125 -7.078125 C -4.453125 -7.210938 -4.328125 -7.359375 -4.078125 -7.515625 C -3.828125 -7.671875 -3.507812 -7.820312 -3.125 -7.96875 C -2.738281 -8.113281 -2.328125 -8.253906 -1.890625 -8.390625 C -1.460938 -8.523438 -1.066406 -8.640625 -0.703125 -8.734375 C -0.347656 -8.828125 -0.0820312 -8.898438 0.09375 -8.953125 C 0.3125 -9.015625 0.46875 -9.050781 0.5625 -9.0625 C 0.65625 -9.070312 0.710938 -9.101562 0.734375 -9.15625 C 0.765625 -9.21875 0.796875 -9.34375 0.828125 -9.53125 C 0.910156 -9.957031 1.003906 -10.253906 1.109375 -10.421875 C 1.222656 -10.585938 1.332031 -10.671875 1.4375 -10.671875 C 1.53125 -10.671875 1.601562 -10.625 1.65625 -10.53125 C 1.71875 -10.4375 1.75 -10.328125 1.75 -10.203125 C 1.75 -10.109375 1.742188 -10.066406 1.734375 -10.078125 C 1.722656 -10.097656 1.722656 -10.066406 1.734375 -9.984375 C 1.734375 -9.960938 1.734375 -9.9375 1.734375 -9.90625 C 1.742188 -9.875 1.75 -9.832031 1.75 -9.78125 C 1.75 -9.644531 1.722656 -9.578125 1.671875 -9.578125 C 1.617188 -9.578125 1.5625 -9.566406 1.5 -9.546875 C 1.445312 -9.535156 1.421875 -9.441406 1.421875 -9.265625 C 1.554688 -9.265625 1.695312 -9.28125 1.84375 -9.3125 C 2 -9.351562 2.132812 -9.378906 2.25 -9.390625 C 2.71875 -9.484375 3.179688 -9.5625 3.640625 -9.625 C 4.109375 -9.695312 4.585938 -9.734375 5.078125 -9.734375 C 5.335938 -9.734375 5.523438 -9.675781 5.640625 -9.5625 C 5.753906 -9.457031 5.796875 -9.351562 5.765625 -9.25 C 5.734375 -9.144531 5.613281 -9.09375 5.40625 -9.09375 C 5.382812 -9.175781 5.367188 -9.210938 5.359375 -9.203125 C 5.359375 -9.203125 5.3125 -9.210938 5.21875 -9.234375 C 5.175781 -9.242188 5.09375 -9.25 4.96875 -9.25 C 4.75 -9.25 4.457031 -9.222656 4.09375 -9.171875 C 3.726562 -9.128906 3.347656 -9.078125 2.953125 -9.015625 C 2.554688 -8.953125 2.203125 -8.890625 1.890625 -8.828125 C 1.585938 -8.773438 1.390625 -8.738281 1.296875 -8.71875 L 0.984375 -5.46875 C 0.972656 -5.382812 0.96875 -5.300781 0.96875 -5.21875 C 0.976562 -5.132812 0.984375 -5.050781 0.984375 -4.96875 C 0.984375 -4.863281 0.972656 -4.796875 0.953125 -4.765625 C 0.941406 -4.734375 0.9375 -4.660156 0.9375 -4.546875 C 0.9375 -4.304688 0.941406 -4.035156 0.953125 -3.734375 C 0.960938 -3.429688 0.957031 -3.195312 0.9375 -3.03125 C 0.925781 -2.9375 0.914062 -2.75 0.90625 -2.46875 C 0.90625 -2.1875 0.898438 -1.859375 0.890625 -1.484375 C 0.890625 -1.117188 0.890625 -0.75 0.890625 -0.375 C 0.890625 0 0.890625 0.335938 0.890625 0.640625 C 0.890625 0.953125 0.894531 1.175781 0.90625 1.3125 C 0.90625 1.4375 0.914062 1.613281 0.9375 1.84375 C 0.96875 2.082031 0.972656 2.296875 0.953125 2.484375 C 0.941406 2.679688 0.867188 2.78125 0.734375 2.78125 C 0.523438 2.78125 0.398438 2.664062 0.359375 2.4375 C 0.316406 2.21875 0.296875 2.015625 0.296875 1.828125 C 0.265625 1.441406 0.242188 0.992188 0.234375 0.484375 C 0.234375 -0.0117188 0.234375 -0.519531 0.234375 -1.03125 C 0.242188 -1.539062 0.25 -1.984375 0.25 -2.359375 L 0.296875 -3.109375 C 0.296875 -3.253906 0.296875 -3.476562 0.296875 -3.78125 C 0.296875 -4.09375 0.300781 -4.421875 0.3125 -4.765625 C 0.320312 -5.109375 0.332031 -5.421875 0.34375 -5.703125 C 0.351562 -5.992188 0.367188 -6.195312 0.390625 -6.3125 C 0.410156 -6.425781 0.421875 -6.554688 0.421875 -6.703125 C 0.429688 -6.847656 0.441406 -6.972656 0.453125 -7.078125 L 0.609375 -8.5625 C 0.566406 -8.550781 0.472656 -8.53125 0.328125 -8.5 C 0.179688 -8.46875 0.0664062 -8.4375 -0.015625 -8.40625 C -0.535156 -8.28125 -1.03125 -8.144531 -1.5 -8 C -1.96875 -7.863281 -2.453125 -7.703125 -2.953125 -7.515625 C -3.046875 -7.472656 -3.128906 -7.425781 -3.203125 -7.375 C -3.285156 -7.320312 -3.378906 -7.273438 -3.484375 -7.234375 C -3.609375 -7.179688 -3.6875 -7.144531 -3.71875 -7.125 C -3.757812 -7.101562 -3.78125 -7.078125 -3.78125 -7.046875 C -3.78125 -7.015625 -3.804688 -6.945312 -3.859375 -6.84375 C -3.898438 -6.832031 -3.941406 -6.820312 -3.984375 -6.8125 C -4.023438 -6.8125 -4.070312 -6.8125 -4.125 -6.8125 C -4.207031 -6.8125 -4.28125 -6.828125 -4.34375 -6.859375 C -4.414062 -6.898438 -4.453125 -6.972656 -4.453125 -7.078125 Z M -4.453125 -7.078125 "/></g></g></g><g fill="#693e26" fill-opacity="1"><g transform="translate(17.137582, 16.046364)"><g><path d="M 0 -1.609375 C 0 -1.828125 0.0507812 -2.097656 0.15625 -2.421875 C 0.257812 -2.753906 0.40625 -3.082031 0.59375 -3.40625 C 0.789062 -3.726562 1.015625 -3.992188 1.265625 -4.203125 C 1.515625 -4.421875 1.773438 -4.53125 2.046875 -4.53125 C 2.296875 -4.53125 2.5 -4.453125 2.65625 -4.296875 C 2.820312 -4.148438 2.921875 -4 2.953125 -3.84375 C 2.984375 -3.695312 2.929688 -3.625 2.796875 -3.625 C 2.691406 -3.625 2.582031 -3.679688 2.46875 -3.796875 C 2.351562 -3.921875 2.222656 -3.984375 2.078125 -3.984375 C 1.960938 -3.984375 1.820312 -3.914062 1.65625 -3.78125 C 1.488281 -3.644531 1.289062 -3.375 1.0625 -2.96875 C 0.957031 -2.800781 0.859375 -2.582031 0.765625 -2.3125 C 0.679688 -2.039062 0.640625 -1.773438 0.640625 -1.515625 C 0.660156 -1.535156 0.664062 -1.539062 0.65625 -1.53125 C 0.65625 -1.53125 0.675781 -1.550781 0.71875 -1.59375 L 0.84375 -1.78125 C 0.925781 -1.90625 1.019531 -2.066406 1.125 -2.265625 C 1.238281 -2.472656 1.351562 -2.675781 1.46875 -2.875 C 1.59375 -3.082031 1.703125 -3.257812 1.796875 -3.40625 C 1.890625 -3.550781 1.960938 -3.625 2.015625 -3.625 C 2.203125 -3.625 2.3125 -3.550781 2.34375 -3.40625 C 2.375 -3.269531 2.382812 -3.101562 2.375 -2.90625 C 2.375 -2.707031 2.394531 -2.503906 2.4375 -2.296875 C 2.507812 -2.015625 2.609375 -1.804688 2.734375 -1.671875 C 2.867188 -1.535156 3.019531 -1.46875 3.1875 -1.46875 C 3.488281 -1.46875 3.816406 -1.648438 4.171875 -2.015625 C 4.316406 -2.148438 4.421875 -2.265625 4.484375 -2.359375 C 4.554688 -2.453125 4.644531 -2.554688 4.75 -2.671875 C 4.820312 -2.773438 4.914062 -2.828125 5.03125 -2.828125 C 5.144531 -2.828125 5.191406 -2.726562 5.171875 -2.53125 C 5.160156 -2.332031 4.957031 -2.039062 4.5625 -1.65625 L 4.078125 -1.265625 C 3.773438 -1.054688 3.476562 -0.953125 3.1875 -0.953125 C 2.925781 -0.953125 2.695312 -1.03125 2.5 -1.1875 C 2.300781 -1.34375 2.148438 -1.535156 2.046875 -1.765625 C 1.941406 -2.003906 1.890625 -2.234375 1.890625 -2.453125 C 1.816406 -2.398438 1.734375 -2.285156 1.640625 -2.109375 C 1.546875 -1.929688 1.441406 -1.738281 1.328125 -1.53125 C 1.210938 -1.320312 1.097656 -1.140625 0.984375 -0.984375 C 0.867188 -0.835938 0.753906 -0.765625 0.640625 -0.765625 C 0.335938 -0.765625 0.15625 -0.832031 0.09375 -0.96875 C 0.03125 -1.101562 0 -1.316406 0 -1.609375 Z M 0 -1.609375 "/></g></g></g><g fill="#693e26" fill-opacity="1"><g transform="translate(21.739326, 16.046364)"><g><path d="M 0.4375 -0.828125 C 0.238281 -0.828125 0.109375 -0.945312 0.046875 -1.1875 C -0.00390625 -1.4375 -0.0078125 -1.742188 0.03125 -2.109375 C 0.0703125 -2.472656 0.144531 -2.835938 0.25 -3.203125 C 0.363281 -3.566406 0.488281 -3.867188 0.625 -4.109375 C 0.769531 -4.359375 0.898438 -4.484375 1.015625 -4.484375 C 1.191406 -4.484375 1.273438 -4.398438 1.265625 -4.234375 C 1.253906 -4.066406 1.203125 -3.847656 1.109375 -3.578125 C 1.015625 -3.304688 0.921875 -3.007812 0.828125 -2.6875 C 0.734375 -2.363281 0.6875 -2.050781 0.6875 -1.75 L 1.4375 -2.90625 C 1.476562 -2.96875 1.550781 -3.078125 1.65625 -3.234375 C 1.757812 -3.398438 1.875 -3.550781 2 -3.6875 C 2.132812 -3.820312 2.265625 -3.890625 2.390625 -3.890625 C 2.523438 -3.890625 2.628906 -3.804688 2.703125 -3.640625 L 2.796875 -2.75 C 2.796875 -2.65625 2.800781 -2.503906 2.8125 -2.296875 C 2.820312 -2.097656 2.84375 -1.894531 2.875 -1.6875 C 2.914062 -1.476562 2.976562 -1.300781 3.0625 -1.15625 C 3.144531 -1.007812 3.257812 -0.9375 3.40625 -0.9375 C 3.570312 -0.9375 3.738281 -1.03125 3.90625 -1.21875 C 4.082031 -1.414062 4.253906 -1.632812 4.421875 -1.875 C 4.585938 -2.125 4.734375 -2.34375 4.859375 -2.53125 C 4.992188 -2.726562 5.097656 -2.828125 5.171875 -2.828125 C 5.328125 -2.828125 5.398438 -2.765625 5.390625 -2.640625 C 5.378906 -2.515625 5.328125 -2.375 5.234375 -2.21875 C 5.140625 -2.0625 5.039062 -1.914062 4.9375 -1.78125 C 4.84375 -1.644531 4.785156 -1.5625 4.765625 -1.53125 C 4.691406 -1.425781 4.585938 -1.300781 4.453125 -1.15625 C 4.328125 -1.007812 4.195312 -0.875 4.0625 -0.75 C 3.925781 -0.625 3.796875 -0.546875 3.671875 -0.515625 C 3.566406 -0.472656 3.460938 -0.453125 3.359375 -0.453125 C 3.117188 -0.453125 2.925781 -0.539062 2.78125 -0.71875 C 2.644531 -0.90625 2.535156 -1.101562 2.453125 -1.3125 C 2.347656 -1.632812 2.289062 -1.921875 2.28125 -2.171875 C 2.269531 -2.421875 2.269531 -2.628906 2.28125 -2.796875 C 2.289062 -2.972656 2.269531 -3.109375 2.21875 -3.203125 C 2.09375 -3.117188 1.957031 -2.945312 1.8125 -2.6875 C 1.675781 -2.4375 1.53125 -2.164062 1.375 -1.875 C 1.21875 -1.582031 1.0625 -1.332031 0.90625 -1.125 C 0.757812 -0.925781 0.601562 -0.828125 0.4375 -0.828125 Z M 0.4375 -0.828125 "/></g></g></g><g fill="#693e26" fill-opacity="1"><g transform="translate(26.499748, 16.046364)"><g><path d="M 0.734375 -2.875 C 0.929688 -2.976562 1.148438 -3.125 1.390625 -3.3125 C 1.640625 -3.5 1.773438 -3.71875 1.796875 -3.96875 C 1.660156 -3.945312 1.515625 -3.875 1.359375 -3.75 C 1.203125 -3.625 1.066406 -3.476562 0.953125 -3.3125 C 0.847656 -3.15625 0.773438 -3.007812 0.734375 -2.875 Z M 0.015625 -2.5 C 0.015625 -2.757812 0.101562 -3.039062 0.28125 -3.34375 C 0.457031 -3.65625 0.671875 -3.914062 0.921875 -4.125 C 1.179688 -4.34375 1.441406 -4.453125 1.703125 -4.453125 C 2.046875 -4.453125 2.222656 -4.320312 2.234375 -4.0625 C 2.253906 -3.800781 2.144531 -3.515625 1.90625 -3.203125 C 1.78125 -3.066406 1.585938 -2.90625 1.328125 -2.71875 C 1.078125 -2.539062 0.832031 -2.441406 0.59375 -2.421875 C 0.59375 -2.253906 0.597656 -2.101562 0.609375 -1.96875 C 0.617188 -1.84375 0.691406 -1.710938 0.828125 -1.578125 C 0.960938 -1.429688 1.132812 -1.359375 1.34375 -1.359375 C 1.625 -1.359375 1.910156 -1.445312 2.203125 -1.625 C 2.503906 -1.800781 2.734375 -1.945312 2.890625 -2.0625 C 2.953125 -2.113281 3 -2.15625 3.03125 -2.1875 C 3.070312 -2.21875 3.117188 -2.253906 3.171875 -2.296875 C 3.398438 -2.472656 3.539062 -2.597656 3.59375 -2.671875 C 3.65625 -2.753906 3.707031 -2.804688 3.75 -2.828125 C 3.789062 -2.859375 3.890625 -2.875 4.046875 -2.875 C 4.066406 -2.757812 4.070312 -2.679688 4.0625 -2.640625 C 4.0625 -2.597656 4.023438 -2.53125 3.953125 -2.4375 C 3.765625 -2.25 3.523438 -2.03125 3.234375 -1.78125 C 2.941406 -1.539062 2.628906 -1.332031 2.296875 -1.15625 C 1.960938 -0.976562 1.628906 -0.890625 1.296875 -0.890625 C 1.128906 -0.890625 0.96875 -0.914062 0.8125 -0.96875 C 0.664062 -1.03125 0.519531 -1.128906 0.375 -1.265625 C 0.1875 -1.460938 0.078125 -1.660156 0.046875 -1.859375 C 0.0234375 -2.054688 0.015625 -2.269531 0.015625 -2.5 Z M 0.015625 -2.5 "/></g></g></g><g fill="#693e26" fill-opacity="1"><g transform="translate(29.943121, 16.046364)"><g/></g></g><g fill="#693e26" fill-opacity="1"><g transform="translate(34.052952, 16.046364)"><g><path d="M 7.125 7.890625 C 7.394531 7.890625 7.648438 7.734375 7.890625 7.421875 C 8.128906 7.117188 8.359375 6.726562 8.578125 6.25 C 8.796875 5.78125 8.984375 5.28125 9.140625 4.75 C 9.304688 4.226562 9.441406 3.742188 9.546875 3.296875 C 9.648438 2.859375 9.707031 2.519531 9.71875 2.28125 C 9.613281 2.363281 9.519531 2.460938 9.4375 2.578125 C 9.351562 2.691406 9.257812 2.796875 9.15625 2.890625 C 8.882812 3.160156 8.59375 3.492188 8.28125 3.890625 C 7.976562 4.296875 7.695312 4.707031 7.4375 5.125 C 7.1875 5.539062 7.003906 5.921875 6.890625 6.265625 C 6.859375 6.367188 6.820312 6.507812 6.78125 6.6875 C 6.738281 6.875 6.710938 7.054688 6.703125 7.234375 C 6.691406 7.421875 6.71875 7.578125 6.78125 7.703125 C 6.84375 7.828125 6.957031 7.890625 7.125 7.890625 Z M 0 -1.359375 C 0 -2.035156 0.0546875 -2.738281 0.171875 -3.46875 C 0.285156 -4.195312 0.445312 -4.910156 0.65625 -5.609375 C 0.863281 -6.316406 1.101562 -6.972656 1.375 -7.578125 C 1.5625 -7.941406 1.78125 -8.332031 2.03125 -8.75 C 2.28125 -9.164062 2.566406 -9.5625 2.890625 -9.9375 C 3.222656 -10.3125 3.585938 -10.613281 3.984375 -10.84375 C 4.378906 -11.070312 4.804688 -11.1875 5.265625 -11.1875 C 5.679688 -11.1875 6.070312 -11.0625 6.4375 -10.8125 C 6.800781 -10.570312 7.113281 -10.1875 7.375 -9.65625 C 7.6875 -9.039062 7.875 -8.335938 7.9375 -7.546875 C 8.007812 -6.765625 8.003906 -5.976562 7.921875 -5.1875 C 7.835938 -4.394531 7.710938 -3.660156 7.546875 -2.984375 C 7.460938 -2.679688 7.398438 -2.472656 7.359375 -2.359375 C 7.316406 -2.242188 7.25 -2.1875 7.15625 -2.1875 C 7.125 -2.1875 7.082031 -2.191406 7.03125 -2.203125 C 6.988281 -2.222656 6.9375 -2.238281 6.875 -2.25 C 6.832031 -2.476562 6.820312 -2.660156 6.84375 -2.796875 C 6.863281 -2.929688 6.890625 -3.113281 6.921875 -3.34375 C 7.015625 -3.789062 7.082031 -4.179688 7.125 -4.515625 C 7.175781 -4.847656 7.207031 -5.179688 7.21875 -5.515625 C 7.226562 -5.859375 7.234375 -6.257812 7.234375 -6.71875 C 7.234375 -7.050781 7.195312 -7.425781 7.125 -7.84375 C 7.050781 -8.257812 6.9375 -8.65625 6.78125 -9.03125 C 6.625 -9.414062 6.421875 -9.726562 6.171875 -9.96875 C 5.929688 -10.21875 5.632812 -10.34375 5.28125 -10.34375 C 4.894531 -10.34375 4.53125 -10.21875 4.1875 -9.96875 C 3.84375 -9.71875 3.519531 -9.390625 3.21875 -8.984375 C 2.914062 -8.578125 2.644531 -8.144531 2.40625 -7.6875 C 2.164062 -7.226562 1.960938 -6.785156 1.796875 -6.359375 C 1.628906 -5.929688 1.5 -5.566406 1.40625 -5.265625 C 1.28125 -4.847656 1.160156 -4.347656 1.046875 -3.765625 C 0.929688 -3.179688 0.847656 -2.570312 0.796875 -1.9375 C 0.753906 -1.3125 0.757812 -0.703125 0.8125 -0.109375 C 0.875 0.472656 1.015625 0.988281 1.234375 1.4375 C 1.304688 1.59375 1.394531 1.75 1.5 1.90625 C 1.601562 2.070312 1.722656 2.207031 1.859375 2.3125 C 2.035156 2.476562 2.226562 2.59375 2.4375 2.65625 C 2.644531 2.726562 2.851562 2.765625 3.0625 2.765625 C 3.457031 2.765625 3.851562 2.675781 4.25 2.5 C 4.644531 2.320312 5.015625 2.101562 5.359375 1.84375 C 5.710938 1.59375 6.003906 1.351562 6.234375 1.125 L 7.09375 0.1875 C 7.488281 -0.3125 7.804688 -0.769531 8.046875 -1.1875 C 8.285156 -1.613281 8.566406 -2.101562 8.890625 -2.65625 C 8.972656 -2.800781 9.078125 -2.992188 9.203125 -3.234375 C 9.328125 -3.472656 9.460938 -3.707031 9.609375 -3.9375 C 9.765625 -4.175781 9.914062 -4.378906 10.0625 -4.546875 C 10.207031 -4.710938 10.347656 -4.796875 10.484375 -4.796875 C 10.628906 -4.796875 10.738281 -4.71875 10.8125 -4.5625 C 10.882812 -4.40625 10.929688 -4.21875 10.953125 -4 C 10.984375 -3.78125 11 -3.554688 11 -3.328125 C 11 -3.109375 11 -2.929688 11 -2.796875 C 11 -2.085938 10.953125 -1.429688 10.859375 -0.828125 C 10.765625 -0.222656 10.710938 0.238281 10.703125 0.5625 C 10.753906 0.53125 10.785156 0.492188 10.796875 0.453125 C 10.816406 0.421875 10.863281 0.382812 10.9375 0.34375 C 10.988281 0.289062 11.03125 0.253906 11.0625 0.234375 C 11.09375 0.222656 11.132812 0.195312 11.1875 0.15625 L 13.40625 -2 C 13.46875 -2.082031 13.550781 -2.1875 13.65625 -2.3125 C 13.757812 -2.4375 13.867188 -2.546875 13.984375 -2.640625 C 14.097656 -2.742188 14.207031 -2.796875 14.3125 -2.796875 C 14.476562 -2.796875 14.539062 -2.738281 14.5 -2.625 C 14.46875 -2.507812 14.390625 -2.375 14.265625 -2.21875 C 14.140625 -2.070312 14.007812 -1.929688 13.875 -1.796875 C 13.75 -1.671875 13.671875 -1.585938 13.640625 -1.546875 C 13.535156 -1.429688 13.441406 -1.320312 13.359375 -1.21875 C 13.273438 -1.125 13.175781 -1.023438 13.0625 -0.921875 L 10.6875 1.328125 C 10.582031 1.421875 10.519531 1.550781 10.5 1.71875 C 10.476562 1.894531 10.441406 2.050781 10.390625 2.1875 C 10.316406 2.601562 10.210938 3.082031 10.078125 3.625 C 9.953125 4.175781 9.789062 4.734375 9.59375 5.296875 C 9.40625 5.867188 9.179688 6.394531 8.921875 6.875 C 8.671875 7.363281 8.375 7.75 8.03125 8.03125 C 7.957031 8.09375 7.84375 8.164062 7.6875 8.25 C 7.539062 8.34375 7.40625 8.390625 7.28125 8.390625 C 6.914062 8.390625 6.65625 8.316406 6.5 8.171875 C 6.351562 8.023438 6.269531 7.832031 6.25 7.59375 C 6.226562 7.363281 6.21875 7.128906 6.21875 6.890625 C 6.21875 6.535156 6.296875 6.171875 6.453125 5.796875 C 6.617188 5.421875 6.828125 5.050781 7.078125 4.6875 C 7.328125 4.320312 7.578125 3.972656 7.828125 3.640625 C 8.078125 3.316406 8.300781 3.035156 8.5 2.796875 C 8.570312 2.710938 8.640625 2.632812 8.703125 2.5625 C 8.773438 2.5 8.835938 2.421875 8.890625 2.328125 C 9.085938 2.078125 9.25 1.90625 9.375 1.8125 C 9.507812 1.726562 9.613281 1.660156 9.6875 1.609375 C 9.757812 1.554688 9.816406 1.46875 9.859375 1.34375 C 9.910156 1.21875 9.960938 1 10.015625 0.6875 C 10.046875 0.425781 10.085938 0.0742188 10.140625 -0.359375 C 10.203125 -0.796875 10.253906 -1.253906 10.296875 -1.734375 C 10.347656 -2.210938 10.378906 -2.664062 10.390625 -3.09375 C 10.410156 -3.519531 10.390625 -3.84375 10.328125 -4.0625 L 9.65625 -2.9375 C 9.425781 -2.582031 9.238281 -2.273438 9.09375 -2.015625 C 8.945312 -1.765625 8.804688 -1.519531 8.671875 -1.28125 C 8.535156 -1.050781 8.378906 -0.804688 8.203125 -0.546875 C 8.023438 -0.285156 7.804688 0.015625 7.546875 0.359375 C 7.335938 0.648438 7.066406 0.960938 6.734375 1.296875 C 6.398438 1.628906 6.03125 1.945312 5.625 2.25 C 5.21875 2.5625 4.804688 2.8125 4.390625 3 C 3.984375 3.195312 3.597656 3.296875 3.234375 3.296875 C 2.867188 3.296875 2.535156 3.269531 2.234375 3.21875 C 1.941406 3.175781 1.65625 3.015625 1.375 2.734375 C 0.863281 2.203125 0.503906 1.59375 0.296875 0.90625 C 0.0976562 0.21875 0 -0.535156 0 -1.359375 Z M 0 -1.359375 "/></g></g></g><g fill="#693e26" fill-opacity="1"><g transform="translate(47.794709, 16.046364)"><g><path d="M 0.796875 -0.359375 C 0.953125 -0.398438 1.09375 -0.539062 1.21875 -0.78125 C 1.34375 -1.019531 1.429688 -1.289062 1.484375 -1.59375 C 1.546875 -1.90625 1.5625 -2.191406 1.53125 -2.453125 C 1.507812 -2.710938 1.425781 -2.890625 1.28125 -2.984375 C 1.25 -2.867188 1.191406 -2.703125 1.109375 -2.484375 C 1.023438 -2.265625 0.941406 -2.023438 0.859375 -1.765625 C 0.785156 -1.503906 0.734375 -1.25 0.703125 -1 C 0.679688 -0.757812 0.710938 -0.546875 0.796875 -0.359375 Z M 0 -0.90625 C 0 -1.039062 0.0234375 -1.242188 0.078125 -1.515625 C 0.140625 -1.785156 0.222656 -2.078125 0.328125 -2.390625 C 0.429688 -2.703125 0.550781 -3 0.6875 -3.28125 C 0.820312 -3.5625 0.960938 -3.789062 1.109375 -3.96875 C 1.265625 -4.144531 1.425781 -4.234375 1.59375 -4.234375 C 1.695312 -4.234375 1.769531 -4.1875 1.8125 -4.09375 C 1.851562 -4 1.863281 -3.921875 1.84375 -3.859375 C 1.820312 -3.804688 1.78125 -3.753906 1.71875 -3.703125 C 1.664062 -3.648438 1.617188 -3.59375 1.578125 -3.53125 C 1.597656 -3.445312 1.648438 -3.359375 1.734375 -3.265625 C 1.816406 -3.179688 1.898438 -3.066406 1.984375 -2.921875 C 2.066406 -2.773438 2.117188 -2.570312 2.140625 -2.3125 C 2.171875 -2.0625 2.144531 -1.726562 2.0625 -1.3125 C 1.945312 -0.757812 1.757812 -0.347656 1.5 -0.078125 C 1.25 0.191406 1.003906 0.328125 0.765625 0.328125 C 0.554688 0.328125 0.375 0.222656 0.21875 0.015625 C 0.0703125 -0.179688 0 -0.488281 0 -0.90625 Z M 0 -0.90625 "/></g></g></g><g fill="#693e26" fill-opacity="1"><g transform="translate(50.587491, 16.046364)"><g><path d="M 0.4375 -0.828125 C 0.238281 -0.828125 0.109375 -0.945312 0.046875 -1.1875 C -0.00390625 -1.4375 -0.0078125 -1.742188 0.03125 -2.109375 C 0.0703125 -2.472656 0.144531 -2.835938 0.25 -3.203125 C 0.363281 -3.566406 0.488281 -3.867188 0.625 -4.109375 C 0.769531 -4.359375 0.898438 -4.484375 1.015625 -4.484375 C 1.191406 -4.484375 1.273438 -4.398438 1.265625 -4.234375 C 1.253906 -4.066406 1.203125 -3.847656 1.109375 -3.578125 C 1.015625 -3.304688 0.921875 -3.007812 0.828125 -2.6875 C 0.734375 -2.363281 0.6875 -2.050781 0.6875 -1.75 L 1.4375 -2.90625 C 1.476562 -2.96875 1.550781 -3.078125 1.65625 -3.234375 C 1.757812 -3.398438 1.875 -3.550781 2 -3.6875 C 2.132812 -3.820312 2.265625 -3.890625 2.390625 -3.890625 C 2.523438 -3.890625 2.628906 -3.804688 2.703125 -3.640625 L 2.796875 -2.75 C 2.796875 -2.65625 2.800781 -2.503906 2.8125 -2.296875 C 2.820312 -2.097656 2.84375 -1.894531 2.875 -1.6875 C 2.914062 -1.476562 2.976562 -1.300781 3.0625 -1.15625 C 3.144531 -1.007812 3.257812 -0.9375 3.40625 -0.9375 C 3.570312 -0.9375 3.738281 -1.03125 3.90625 -1.21875 C 4.082031 -1.414062 4.253906 -1.632812 4.421875 -1.875 C 4.585938 -2.125 4.734375 -2.34375 4.859375 -2.53125 C 4.992188 -2.726562 5.097656 -2.828125 5.171875 -2.828125 C 5.328125 -2.828125 5.398438 -2.765625 5.390625 -2.640625 C 5.378906 -2.515625 5.328125 -2.375 5.234375 -2.21875 C 5.140625 -2.0625 5.039062 -1.914062 4.9375 -1.78125 C 4.84375 -1.644531 4.785156 -1.5625 4.765625 -1.53125 C 4.691406 -1.425781 4.585938 -1.300781 4.453125 -1.15625 C 4.328125 -1.007812 4.195312 -0.875 4.0625 -0.75 C 3.925781 -0.625 3.796875 -0.546875 3.671875 -0.515625 C 3.566406 -0.472656 3.460938 -0.453125 3.359375 -0.453125 C 3.117188 -0.453125 2.925781 -0.539062 2.78125 -0.71875 C 2.644531 -0.90625 2.535156 -1.101562 2.453125 -1.3125 C 2.347656 -1.632812 2.289062 -1.921875 2.28125 -2.171875 C 2.269531 -2.421875 2.269531 -2.628906 2.28125 -2.796875 C 2.289062 -2.972656 2.269531 -3.109375 2.21875 -3.203125 C 2.09375 -3.117188 1.957031 -2.945312 1.8125 -2.6875 C 1.675781 -2.4375 1.53125 -2.164062 1.375 -1.875 C 1.21875 -1.582031 1.0625 -1.332031 0.90625 -1.125 C 0.757812 -0.925781 0.601562 -0.828125 0.4375 -0.828125 Z M 0.4375 -0.828125 "/></g></g></g><g fill="#693e26" fill-opacity="1"><g transform="translate(55.347913, 16.046364)"><g><path d="M 4.390625 -2.96875 C 4.472656 -2.96875 4.53125 -2.929688 4.5625 -2.859375 C 4.59375 -2.785156 4.582031 -2.695312 4.53125 -2.59375 C 4.507812 -2.539062 4.472656 -2.476562 4.421875 -2.40625 C 4.367188 -2.34375 4.320312 -2.285156 4.28125 -2.234375 C 4.09375 -1.992188 3.867188 -1.738281 3.609375 -1.46875 C 3.359375 -1.207031 3.085938 -0.972656 2.796875 -0.765625 C 2.503906 -0.554688 2.195312 -0.414062 1.875 -0.34375 C 1.863281 -0.320312 1.859375 -0.289062 1.859375 -0.25 C 1.847656 -0.15625 1.875 -0.0664062 1.9375 0.015625 C 1.988281 0.0546875 2.035156 0.101562 2.078125 0.15625 C 2.117188 0.21875 2.15625 0.28125 2.1875 0.34375 C 2.238281 0.425781 2.265625 0.519531 2.265625 0.625 C 2.265625 0.769531 2.175781 0.882812 2 0.96875 C 1.820312 1.050781 1.675781 1.09375 1.5625 1.09375 C 1.445312 1.09375 1.347656 1.078125 1.265625 1.046875 C 1.191406 1.015625 1.125 0.957031 1.0625 0.875 C 1.019531 0.832031 1.015625 0.78125 1.046875 0.71875 C 1.160156 0.71875 1.265625 0.6875 1.359375 0.625 C 1.453125 0.570312 1.535156 0.5 1.609375 0.40625 C 1.660156 0.34375 1.660156 0.28125 1.609375 0.21875 L 1.40625 -0.015625 C 1.320312 -0.117188 1.28125 -0.222656 1.28125 -0.328125 C 0.820312 -0.378906 0.488281 -0.597656 0.28125 -0.984375 C 0.0703125 -1.367188 -0.03125 -1.789062 -0.03125 -2.25 C -0.03125 -2.445312 0.00390625 -2.671875 0.078125 -2.921875 C 0.160156 -3.171875 0.273438 -3.414062 0.421875 -3.65625 C 0.566406 -3.90625 0.734375 -4.113281 0.921875 -4.28125 C 1.117188 -4.445312 1.335938 -4.53125 1.578125 -4.53125 C 1.910156 -4.53125 2.078125 -4.316406 2.078125 -3.890625 C 2.078125 -3.617188 2.007812 -3.484375 1.875 -3.484375 C 1.71875 -3.484375 1.625 -3.617188 1.59375 -3.890625 C 1.40625 -3.765625 1.226562 -3.546875 1.0625 -3.234375 C 0.90625 -2.929688 0.800781 -2.601562 0.75 -2.25 C 0.695312 -1.90625 0.734375 -1.597656 0.859375 -1.328125 C 0.910156 -1.191406 0.984375 -1.078125 1.078125 -0.984375 C 1.179688 -0.890625 1.332031 -0.84375 1.53125 -0.84375 C 1.894531 -0.84375 2.234375 -0.941406 2.546875 -1.140625 C 2.859375 -1.347656 3.144531 -1.597656 3.40625 -1.890625 C 3.664062 -2.179688 3.890625 -2.460938 4.078125 -2.734375 C 4.191406 -2.890625 4.296875 -2.96875 4.390625 -2.96875 Z M 4.390625 -2.96875 "/></g></g></g><g fill="#693e26" fill-opacity="1"><g transform="translate(59.187989, 16.046364)"><g><path d="M 0 -1.609375 C 0 -1.828125 0.0507812 -2.097656 0.15625 -2.421875 C 0.257812 -2.753906 0.40625 -3.082031 0.59375 -3.40625 C 0.789062 -3.726562 1.015625 -3.992188 1.265625 -4.203125 C 1.515625 -4.421875 1.773438 -4.53125 2.046875 -4.53125 C 2.296875 -4.53125 2.5 -4.453125 2.65625 -4.296875 C 2.820312 -4.148438 2.921875 -4 2.953125 -3.84375 C 2.984375 -3.695312 2.929688 -3.625 2.796875 -3.625 C 2.691406 -3.625 2.582031 -3.679688 2.46875 -3.796875 C 2.351562 -3.921875 2.222656 -3.984375 2.078125 -3.984375 C 1.960938 -3.984375 1.820312 -3.914062 1.65625 -3.78125 C 1.488281 -3.644531 1.289062 -3.375 1.0625 -2.96875 C 0.957031 -2.800781 0.859375 -2.582031 0.765625 -2.3125 C 0.679688 -2.039062 0.640625 -1.773438 0.640625 -1.515625 C 0.660156 -1.535156 0.664062 -1.539062 0.65625 -1.53125 C 0.65625 -1.53125 0.675781 -1.550781 0.71875 -1.59375 L 0.84375 -1.78125 C 0.925781 -1.90625 1.019531 -2.066406 1.125 -2.265625 C 1.238281 -2.472656 1.351562 -2.675781 1.46875 -2.875 C 1.59375 -3.082031 1.703125 -3.257812 1.796875 -3.40625 C 1.890625 -3.550781 1.960938 -3.625 2.015625 -3.625 C 2.203125 -3.625 2.3125 -3.550781 2.34375 -3.40625 C 2.375 -3.269531 2.382812 -3.101562 2.375 -2.90625 C 2.375 -2.707031 2.394531 -2.503906 2.4375 -2.296875 C 2.507812 -2.015625 2.609375 -1.804688 2.734375 -1.671875 C 2.867188 -1.535156 3.019531 -1.46875 3.1875 -1.46875 C 3.488281 -1.46875 3.816406 -1.648438 4.171875 -2.015625 C 4.316406 -2.148438 4.421875 -2.265625 4.484375 -2.359375 C 4.554688 -2.453125 4.644531 -2.554688 4.75 -2.671875 C 4.820312 -2.773438 4.914062 -2.828125 5.03125 -2.828125 C 5.144531 -2.828125 5.191406 -2.726562 5.171875 -2.53125 C 5.160156 -2.332031 4.957031 -2.039062 4.5625 -1.65625 L 4.078125 -1.265625 C 3.773438 -1.054688 3.476562 -0.953125 3.1875 -0.953125 C 2.925781 -0.953125 2.695312 -1.03125 2.5 -1.1875 C 2.300781 -1.34375 2.148438 -1.535156 2.046875 -1.765625 C 1.941406 -2.003906 1.890625 -2.234375 1.890625 -2.453125 C 1.816406 -2.398438 1.734375 -2.285156 1.640625 -2.109375 C 1.546875 -1.929688 1.441406 -1.738281 1.328125 -1.53125 C 1.210938 -1.320312 1.097656 -1.140625 0.984375 -0.984375 C 0.867188 -0.835938 0.753906 -0.765625 0.640625 -0.765625 C 0.335938 -0.765625 0.15625 -0.832031 0.09375 -0.96875 C 0.03125 -1.101562 0 -1.316406 0 -1.609375 Z M 0 -1.609375 "/></g></g></g><g fill="#693e26" fill-opacity="1"><g transform="translate(63.789733, 16.046364)"><g><path d="M 0.03125 -1.21875 C 0.03125 -1.75 0.0625 -2.320312 0.125 -2.9375 C 0.1875 -3.550781 0.269531 -4.160156 0.375 -4.765625 C 0.488281 -5.367188 0.609375 -5.910156 0.734375 -6.390625 C 0.785156 -6.554688 0.835938 -6.734375 0.890625 -6.921875 C 0.941406 -7.117188 1.007812 -7.289062 1.09375 -7.4375 C 1.175781 -7.582031 1.285156 -7.65625 1.421875 -7.65625 C 1.554688 -7.65625 1.640625 -7.601562 1.671875 -7.5 C 1.703125 -7.40625 1.703125 -7.289062 1.671875 -7.15625 C 1.648438 -7.03125 1.617188 -6.910156 1.578125 -6.796875 C 1.535156 -6.691406 1.507812 -6.617188 1.5 -6.578125 C 1.40625 -6.253906 1.300781 -5.816406 1.1875 -5.265625 C 1.082031 -4.722656 0.976562 -4.128906 0.875 -3.484375 C 0.78125 -2.847656 0.707031 -2.210938 0.65625 -1.578125 C 0.601562 -0.941406 0.59375 -0.367188 0.625 0.140625 C 0.65625 0.660156 0.738281 1.054688 0.875 1.328125 C 1.050781 1.234375 1.195312 1.09375 1.3125 0.90625 C 1.4375 0.71875 1.539062 0.53125 1.625 0.34375 C 1.863281 -0.113281 2.097656 -0.601562 2.328125 -1.125 C 2.566406 -1.644531 2.8125 -2.132812 3.0625 -2.59375 C 3.144531 -2.757812 3.234375 -2.84375 3.328125 -2.84375 C 3.367188 -2.84375 3.40625 -2.820312 3.4375 -2.78125 C 3.46875 -2.75 3.484375 -2.710938 3.484375 -2.671875 C 3.484375 -2.640625 3.4375 -2.535156 3.34375 -2.359375 C 3.257812 -2.191406 3.171875 -2.019531 3.078125 -1.84375 C 2.992188 -1.664062 2.9375 -1.550781 2.90625 -1.5 C 2.800781 -1.269531 2.679688 -1.003906 2.546875 -0.703125 C 2.410156 -0.410156 2.28125 -0.121094 2.15625 0.15625 C 2.03125 0.445312 1.910156 0.691406 1.796875 0.890625 C 1.742188 0.972656 1.671875 1.082031 1.578125 1.21875 C 1.484375 1.363281 1.382812 1.488281 1.28125 1.59375 C 1.175781 1.707031 1.054688 1.765625 0.921875 1.765625 C 0.710938 1.765625 0.546875 1.65625 0.421875 1.4375 C 0.296875 1.226562 0.207031 0.960938 0.15625 0.640625 C 0.101562 0.328125 0.0664062 0.00390625 0.046875 -0.328125 C 0.0351562 -0.671875 0.03125 -0.96875 0.03125 -1.21875 Z M 0.03125 -1.21875 "/></g></g></g><g fill="#693e26" fill-opacity="1"><g transform="translate(66.582514, 16.046364)"><g><path d="M 0.015625 -1.734375 C 0.015625 -1.890625 0.03125 -2.113281 0.0625 -2.40625 C 0.101562 -2.695312 0.15625 -2.992188 0.21875 -3.296875 C 0.289062 -3.597656 0.375 -3.851562 0.46875 -4.0625 C 0.570312 -4.269531 0.679688 -4.375 0.796875 -4.375 C 0.867188 -4.375 0.914062 -4.367188 0.9375 -4.359375 C 0.957031 -4.347656 0.992188 -4.335938 1.046875 -4.328125 C 1.128906 -4.148438 1.132812 -3.921875 1.0625 -3.640625 C 1 -3.367188 0.941406 -3.070312 0.890625 -2.75 C 0.816406 -2.28125 0.753906 -1.863281 0.703125 -1.5 C 0.660156 -1.144531 0.691406 -0.738281 0.796875 -0.28125 C 0.953125 -0.320312 1.113281 -0.453125 1.28125 -0.671875 C 1.457031 -0.898438 1.625 -1.164062 1.78125 -1.46875 C 1.945312 -1.769531 2.085938 -2.054688 2.203125 -2.328125 C 2.328125 -2.597656 2.425781 -2.800781 2.5 -2.9375 C 2.550781 -3.039062 2.601562 -3.160156 2.65625 -3.296875 C 2.707031 -3.441406 2.769531 -3.566406 2.84375 -3.671875 C 2.914062 -3.785156 3 -3.84375 3.09375 -3.84375 C 3.195312 -3.84375 3.25 -3.785156 3.25 -3.671875 C 3.25 -3.566406 3.21875 -3.429688 3.15625 -3.265625 C 3.101562 -3.109375 3.039062 -2.953125 2.96875 -2.796875 C 2.90625 -2.640625 2.851562 -2.515625 2.8125 -2.421875 C 2.75 -2.296875 2.644531 -2.082031 2.5 -1.78125 C 2.363281 -1.488281 2.203125 -1.175781 2.015625 -0.84375 C 1.835938 -0.519531 1.640625 -0.242188 1.421875 -0.015625 C 1.203125 0.203125 0.988281 0.3125 0.78125 0.3125 C 0.632812 0.3125 0.488281 0.242188 0.34375 0.109375 C 0.207031 -0.0234375 0.117188 -0.203125 0.078125 -0.421875 C 0.0351562 -0.640625 0.015625 -0.863281 0.015625 -1.09375 C 0.015625 -1.332031 0.015625 -1.546875 0.015625 -1.734375 Z M 0.015625 -1.734375 "/></g></g></g><g fill="#693e26" fill-opacity="1"><g transform="translate(69.994151, 16.046364)"><g><path d="M 0.734375 -2.875 C 0.929688 -2.976562 1.148438 -3.125 1.390625 -3.3125 C 1.640625 -3.5 1.773438 -3.71875 1.796875 -3.96875 C 1.660156 -3.945312 1.515625 -3.875 1.359375 -3.75 C 1.203125 -3.625 1.066406 -3.476562 0.953125 -3.3125 C 0.847656 -3.15625 0.773438 -3.007812 0.734375 -2.875 Z M 0.015625 -2.5 C 0.015625 -2.757812 0.101562 -3.039062 0.28125 -3.34375 C 0.457031 -3.65625 0.671875 -3.914062 0.921875 -4.125 C 1.179688 -4.34375 1.441406 -4.453125 1.703125 -4.453125 C 2.046875 -4.453125 2.222656 -4.320312 2.234375 -4.0625 C 2.253906 -3.800781 2.144531 -3.515625 1.90625 -3.203125 C 1.78125 -3.066406 1.585938 -2.90625 1.328125 -2.71875 C 1.078125 -2.539062 0.832031 -2.441406 0.59375 -2.421875 C 0.59375 -2.253906 0.597656 -2.101562 0.609375 -1.96875 C 0.617188 -1.84375 0.691406 -1.710938 0.828125 -1.578125 C 0.960938 -1.429688 1.132812 -1.359375 1.34375 -1.359375 C 1.625 -1.359375 1.910156 -1.445312 2.203125 -1.625 C 2.503906 -1.800781 2.734375 -1.945312 2.890625 -2.0625 C 2.953125 -2.113281 3 -2.15625 3.03125 -2.1875 C 3.070312 -2.21875 3.117188 -2.253906 3.171875 -2.296875 C 3.398438 -2.472656 3.539062 -2.597656 3.59375 -2.671875 C 3.65625 -2.753906 3.707031 -2.804688 3.75 -2.828125 C 3.789062 -2.859375 3.890625 -2.875 4.046875 -2.875 C 4.066406 -2.757812 4.070312 -2.679688 4.0625 -2.640625 C 4.0625 -2.597656 4.023438 -2.53125 3.953125 -2.4375 C 3.765625 -2.25 3.523438 -2.03125 3.234375 -1.78125 C 2.941406 -1.539062 2.628906 -1.332031 2.296875 -1.15625 C 1.960938 -0.976562 1.628906 -0.890625 1.296875 -0.890625 C 1.128906 -0.890625 0.96875 -0.914062 0.8125 -0.96875 C 0.664062 -1.03125 0.519531 -1.128906 0.375 -1.265625 C 0.1875 -1.460938 0.078125 -1.660156 0.046875 -1.859375 C 0.0234375 -2.054688 0.015625 -2.269531 0.015625 -2.5 Z M 0.015625 -2.5 "/></g></g></g><g fill="#693e26" fill-opacity="1"><g transform="translate(73.437525, 16.046364)"><g><path d="M 0.1875 2.625 C 0.1875 2.84375 0.253906 2.953125 0.390625 2.953125 C 0.472656 2.953125 0.554688 2.925781 0.640625 2.875 C 0.722656 2.820312 0.789062 2.773438 0.84375 2.734375 C 1.050781 2.578125 1.238281 2.335938 1.40625 2.015625 C 1.570312 1.691406 1.691406 1.394531 1.765625 1.125 C 1.816406 0.945312 1.84375 0.765625 1.84375 0.578125 C 1.851562 0.390625 1.859375 0.1875 1.859375 -0.03125 C 1.734375 0.0390625 1.585938 0.171875 1.421875 0.359375 C 1.253906 0.546875 1.125 0.695312 1.03125 0.8125 C 0.84375 1.039062 0.65625 1.316406 0.46875 1.640625 C 0.28125 1.972656 0.1875 2.300781 0.1875 2.625 Z M 0.046875 -2.578125 C 0.046875 -2.847656 0.117188 -3.09375 0.265625 -3.3125 C 0.410156 -3.53125 0.585938 -3.703125 0.796875 -3.828125 C 1.003906 -3.960938 1.179688 -4.03125 1.328125 -4.03125 C 1.453125 -4.03125 1.539062 -3.988281 1.59375 -3.90625 C 1.65625 -3.820312 1.660156 -3.679688 1.609375 -3.484375 C 1.472656 -3.441406 1.378906 -3.414062 1.328125 -3.40625 C 1.273438 -3.40625 1.234375 -3.390625 1.203125 -3.359375 C 1.171875 -3.335938 1.113281 -3.28125 1.03125 -3.1875 C 0.820312 -2.957031 0.722656 -2.769531 0.734375 -2.625 C 0.753906 -2.476562 0.835938 -2.34375 0.984375 -2.21875 C 1.140625 -2.101562 1.332031 -1.957031 1.5625 -1.78125 C 1.789062 -1.601562 2.003906 -1.359375 2.203125 -1.046875 C 2.441406 -1.203125 2.679688 -1.390625 2.921875 -1.609375 L 4.390625 -2.640625 C 4.535156 -2.734375 4.65625 -2.796875 4.75 -2.828125 C 4.851562 -2.867188 4.941406 -2.890625 5.015625 -2.890625 C 5.140625 -2.890625 5.191406 -2.835938 5.171875 -2.734375 C 5.148438 -2.628906 5.050781 -2.519531 4.875 -2.40625 L 3.796875 -1.671875 C 3.753906 -1.648438 3.660156 -1.585938 3.515625 -1.484375 C 3.378906 -1.378906 3.226562 -1.265625 3.0625 -1.140625 C 2.90625 -1.023438 2.765625 -0.914062 2.640625 -0.8125 C 2.523438 -0.707031 2.460938 -0.640625 2.453125 -0.609375 C 2.441406 -0.554688 2.457031 -0.453125 2.5 -0.296875 C 2.550781 -0.148438 2.582031 0.0390625 2.59375 0.28125 C 2.613281 0.519531 2.582031 0.8125 2.5 1.15625 C 2.414062 1.5 2.242188 1.894531 1.984375 2.34375 C 1.753906 2.738281 1.5 3.03125 1.21875 3.21875 C 0.945312 3.40625 0.6875 3.5 0.4375 3.5 C 0.21875 3.5 0.0390625 3.421875 -0.09375 3.265625 C -0.238281 3.117188 -0.3125 2.90625 -0.3125 2.625 C -0.3125 2.257812 -0.222656 1.90625 -0.046875 1.5625 C 0.117188 1.226562 0.320312 0.914062 0.5625 0.625 C 0.8125 0.34375 1.039062 0.101562 1.25 -0.09375 C 1.457031 -0.300781 1.59375 -0.457031 1.65625 -0.5625 C 1.519531 -0.78125 1.363281 -0.96875 1.1875 -1.125 C 1.007812 -1.289062 0.832031 -1.441406 0.65625 -1.578125 C 0.476562 -1.722656 0.332031 -1.867188 0.21875 -2.015625 C 0.101562 -2.171875 0.046875 -2.359375 0.046875 -2.578125 Z M 0.046875 -2.578125 "/></g></g></g></g></g><g transform="matrix(1, 0, 0, 1, 32, 25)"><g clip-path="url(#858dadd5ef)"><g fill="#00898b" fill-opacity="1"><g transform="translate(0.823143, 4.402338)"><g><path d="M 1.5625 -2.890625 C 1.925781 -2.890625 2.210938 -2.800781 2.421875 -2.625 C 2.628906 -2.457031 2.734375 -2.21875 2.734375 -1.90625 C 2.734375 -1.59375 2.628906 -1.347656 2.421875 -1.171875 C 2.210938 -1.003906 1.925781 -0.921875 1.5625 -0.921875 L 0.78125 -0.921875 L 0.78125 0 L 0.46875 0 L 0.46875 -2.890625 Z M 1.546875 -1.1875 C 1.835938 -1.1875 2.054688 -1.25 2.203125 -1.375 C 2.359375 -1.5 2.4375 -1.675781 2.4375 -1.90625 C 2.4375 -2.132812 2.359375 -2.3125 2.203125 -2.4375 C 2.054688 -2.570312 1.835938 -2.640625 1.546875 -2.640625 L 0.78125 -2.640625 L 0.78125 -1.1875 Z M 1.546875 -1.1875 "/></g></g></g><g fill="#00898b" fill-opacity="1"><g transform="translate(5.564582, 4.402338)"><g><path d="M 1.265625 0.03125 C 1.054688 0.03125 0.851562 -0.00390625 0.65625 -0.078125 C 0.457031 -0.148438 0.300781 -0.242188 0.1875 -0.359375 L 0.3125 -0.59375 C 0.414062 -0.488281 0.554688 -0.398438 0.734375 -0.328125 C 0.910156 -0.265625 1.085938 -0.234375 1.265625 -0.234375 C 1.523438 -0.234375 1.71875 -0.28125 1.84375 -0.375 C 1.976562 -0.46875 2.046875 -0.59375 2.046875 -0.75 C 2.046875 -0.863281 2.007812 -0.953125 1.9375 -1.015625 C 1.875 -1.085938 1.789062 -1.140625 1.6875 -1.171875 C 1.582031 -1.210938 1.441406 -1.257812 1.265625 -1.3125 C 1.046875 -1.363281 0.867188 -1.414062 0.734375 -1.46875 C 0.609375 -1.519531 0.5 -1.597656 0.40625 -1.703125 C 0.3125 -1.804688 0.265625 -1.945312 0.265625 -2.125 C 0.265625 -2.269531 0.300781 -2.398438 0.375 -2.515625 C 0.457031 -2.640625 0.578125 -2.738281 0.734375 -2.8125 C 0.898438 -2.882812 1.097656 -2.921875 1.328125 -2.921875 C 1.492188 -2.921875 1.65625 -2.894531 1.8125 -2.84375 C 1.976562 -2.800781 2.117188 -2.742188 2.234375 -2.671875 L 2.125 -2.421875 C 2.007812 -2.503906 1.878906 -2.5625 1.734375 -2.59375 C 1.597656 -2.632812 1.460938 -2.65625 1.328125 -2.65625 C 1.078125 -2.65625 0.882812 -2.609375 0.75 -2.515625 C 0.625 -2.421875 0.5625 -2.296875 0.5625 -2.140625 C 0.5625 -2.023438 0.597656 -1.929688 0.671875 -1.859375 C 0.742188 -1.785156 0.832031 -1.726562 0.9375 -1.6875 C 1.039062 -1.65625 1.179688 -1.617188 1.359375 -1.578125 C 1.578125 -1.523438 1.75 -1.472656 1.875 -1.421875 C 2.007812 -1.367188 2.125 -1.289062 2.21875 -1.1875 C 2.3125 -1.082031 2.359375 -0.941406 2.359375 -0.765625 C 2.359375 -0.617188 2.316406 -0.484375 2.234375 -0.359375 C 2.148438 -0.242188 2.023438 -0.148438 1.859375 -0.078125 C 1.703125 -0.00390625 1.503906 0.03125 1.265625 0.03125 Z M 1.265625 0.03125 "/></g></g></g><g fill="#00898b" fill-opacity="1"><g transform="translate(9.87875, 4.402338)"><g><path d="M 0.46875 -2.890625 L 0.78125 -2.890625 L 0.78125 0 L 0.46875 0 Z M 0.46875 -2.890625 "/></g></g></g><g fill="#00898b" fill-opacity="1"><g transform="translate(12.894515, 4.402338)"><g><path d="M 1.734375 0.03125 C 1.441406 0.03125 1.179688 -0.03125 0.953125 -0.15625 C 0.722656 -0.289062 0.539062 -0.46875 0.40625 -0.6875 C 0.28125 -0.914062 0.21875 -1.171875 0.21875 -1.453125 C 0.21875 -1.734375 0.28125 -1.984375 0.40625 -2.203125 C 0.539062 -2.429688 0.722656 -2.609375 0.953125 -2.734375 C 1.179688 -2.859375 1.441406 -2.921875 1.734375 -2.921875 C 1.953125 -2.921875 2.148438 -2.882812 2.328125 -2.8125 C 2.515625 -2.738281 2.671875 -2.632812 2.796875 -2.5 L 2.59375 -2.3125 C 2.375 -2.539062 2.09375 -2.65625 1.75 -2.65625 C 1.519531 -2.65625 1.3125 -2.597656 1.125 -2.484375 C 0.9375 -2.378906 0.785156 -2.234375 0.671875 -2.046875 C 0.566406 -1.867188 0.515625 -1.671875 0.515625 -1.453125 C 0.515625 -1.222656 0.566406 -1.015625 0.671875 -0.828125 C 0.785156 -0.648438 0.9375 -0.507812 1.125 -0.40625 C 1.3125 -0.300781 1.519531 -0.25 1.75 -0.25 C 2.09375 -0.25 2.375 -0.363281 2.59375 -0.59375 L 2.796875 -0.40625 C 2.671875 -0.257812 2.515625 -0.148438 2.328125 -0.078125 C 2.140625 -0.00390625 1.941406 0.03125 1.734375 0.03125 Z M 1.734375 0.03125 "/></g></g></g><g clip-path="url(#39900abb73)"><g fill="#00898b" fill-opacity="1"><g transform="translate(17.577883, 4.402338)"><g><path d="M 1.734375 0.03125 C 1.453125 0.03125 1.191406 -0.03125 0.953125 -0.15625 C 0.722656 -0.289062 0.539062 -0.46875 0.40625 -0.6875 C 0.28125 -0.914062 0.21875 -1.171875 0.21875 -1.453125 C 0.21875 -1.734375 0.28125 -1.984375 0.40625 -2.203125 C 0.539062 -2.421875 0.722656 -2.59375 0.953125 -2.71875 C 1.191406 -2.851562 1.453125 -2.921875 1.734375 -2.921875 C 2.023438 -2.921875 2.285156 -2.859375 2.515625 -2.734375 C 2.742188 -2.609375 2.925781 -2.429688 3.0625 -2.203125 C 3.195312 -1.984375 3.265625 -1.734375 3.265625 -1.453125 C 3.265625 -1.171875 3.195312 -0.914062 3.0625 -0.6875 C 2.925781 -0.46875 2.742188 -0.289062 2.515625 -0.15625 C 2.285156 -0.03125 2.023438 0.03125 1.734375 0.03125 Z M 1.734375 -0.25 C 1.960938 -0.25 2.171875 -0.300781 2.359375 -0.40625 C 2.546875 -0.507812 2.691406 -0.648438 2.796875 -0.828125 C 2.898438 -1.015625 2.953125 -1.222656 2.953125 -1.453125 C 2.953125 -1.671875 2.898438 -1.875 2.796875 -2.0625 C 2.691406 -2.25 2.546875 -2.394531 2.359375 -2.5 C 2.171875 -2.601562 1.960938 -2.65625 1.734375 -2.65625 C 1.503906 -2.65625 1.296875 -2.601562 1.109375 -2.5 C 0.929688 -2.394531 0.785156 -2.25 0.671875 -2.0625 C 0.566406 -1.875 0.515625 -1.671875 0.515625 -1.453125 C 0.515625 -1.222656 0.566406 -1.015625 0.671875 -0.828125 C 0.785156 -0.648438 0.929688 -0.507812 1.109375 -0.40625 C 1.296875 -0.300781 1.503906 -0.25 1.734375 -0.25 Z M 2.046875 -3.640625 L 2.4375 -3.640625 L 1.765625 -3.140625 L 1.46875 -3.140625 Z M 2.046875 -3.640625 "/></g></g></g></g><g fill="#00898b" fill-opacity="1"><g transform="translate(22.821261, 4.402338)"><g><path d="M 0.46875 -2.890625 L 0.78125 -2.890625 L 0.78125 -0.265625 L 2.40625 -0.265625 L 2.40625 0 L 0.46875 0 Z M 0.46875 -2.890625 "/></g></g></g><g fill="#00898b" fill-opacity="1"><g transform="translate(26.969502, 4.402338)"><g><path d="M 1.734375 0.03125 C 1.453125 0.03125 1.191406 -0.03125 0.953125 -0.15625 C 0.722656 -0.289062 0.539062 -0.46875 0.40625 -0.6875 C 0.28125 -0.914062 0.21875 -1.171875 0.21875 -1.453125 C 0.21875 -1.734375 0.28125 -1.984375 0.40625 -2.203125 C 0.539062 -2.421875 0.722656 -2.59375 0.953125 -2.71875 C 1.191406 -2.851562 1.453125 -2.921875 1.734375 -2.921875 C 2.023438 -2.921875 2.285156 -2.859375 2.515625 -2.734375 C 2.742188 -2.609375 2.925781 -2.429688 3.0625 -2.203125 C 3.195312 -1.984375 3.265625 -1.734375 3.265625 -1.453125 C 3.265625 -1.171875 3.195312 -0.914062 3.0625 -0.6875 C 2.925781 -0.46875 2.742188 -0.289062 2.515625 -0.15625 C 2.285156 -0.03125 2.023438 0.03125 1.734375 0.03125 Z M 1.734375 -0.25 C 1.960938 -0.25 2.171875 -0.300781 2.359375 -0.40625 C 2.546875 -0.507812 2.691406 -0.648438 2.796875 -0.828125 C 2.898438 -1.015625 2.953125 -1.222656 2.953125 -1.453125 C 2.953125 -1.671875 2.898438 -1.875 2.796875 -2.0625 C 2.691406 -2.25 2.546875 -2.394531 2.359375 -2.5 C 2.171875 -2.601562 1.960938 -2.65625 1.734375 -2.65625 C 1.503906 -2.65625 1.296875 -2.601562 1.109375 -2.5 C 0.929688 -2.394531 0.785156 -2.25 0.671875 -2.0625 C 0.566406 -1.875 0.515625 -1.671875 0.515625 -1.453125 C 0.515625 -1.222656 0.566406 -1.015625 0.671875 -0.828125 C 0.785156 -0.648438 0.929688 -0.507812 1.109375 -0.40625 C 1.296875 -0.300781 1.503906 -0.25 1.734375 -0.25 Z M 1.734375 -0.25 "/></g></g></g><g fill="#00898b" fill-opacity="1"><g transform="translate(32.212879, 4.402338)"><g><path d="M 2.515625 -1.453125 L 2.8125 -1.453125 L 2.8125 -0.34375 C 2.675781 -0.226562 2.515625 -0.132812 2.328125 -0.0625 C 2.140625 0 1.945312 0.03125 1.75 0.03125 C 1.457031 0.03125 1.191406 -0.03125 0.953125 -0.15625 C 0.722656 -0.289062 0.539062 -0.46875 0.40625 -0.6875 C 0.28125 -0.914062 0.21875 -1.171875 0.21875 -1.453125 C 0.21875 -1.734375 0.28125 -1.984375 0.40625 -2.203125 C 0.539062 -2.429688 0.722656 -2.609375 0.953125 -2.734375 C 1.191406 -2.859375 1.457031 -2.921875 1.75 -2.921875 C 1.96875 -2.921875 2.171875 -2.882812 2.359375 -2.8125 C 2.546875 -2.75 2.703125 -2.644531 2.828125 -2.5 L 2.640625 -2.3125 C 2.410156 -2.539062 2.117188 -2.65625 1.765625 -2.65625 C 1.523438 -2.65625 1.3125 -2.601562 1.125 -2.5 C 0.9375 -2.394531 0.785156 -2.25 0.671875 -2.0625 C 0.566406 -1.875 0.515625 -1.671875 0.515625 -1.453125 C 0.515625 -1.222656 0.566406 -1.015625 0.671875 -0.828125 C 0.785156 -0.648438 0.9375 -0.507812 1.125 -0.40625 C 1.3125 -0.300781 1.519531 -0.25 1.75 -0.25 C 2.050781 -0.25 2.304688 -0.320312 2.515625 -0.46875 Z M 2.515625 -1.453125 "/></g></g></g><g fill="#00898b" fill-opacity="1"><g transform="translate(37.182471, 4.402338)"><g><path d="M 2.296875 -0.78125 L 0.671875 -0.78125 L 0.328125 0 L 0.015625 0 L 1.328125 -2.890625 L 1.640625 -2.890625 L 2.953125 0 L 2.640625 0 Z M 2.171875 -1.015625 L 1.484375 -2.578125 L 0.78125 -1.015625 Z M 2.171875 -1.015625 "/></g></g></g><g fill="#00898b" fill-opacity="1"><g transform="translate(41.919763, 4.402338)"><g/></g></g><g fill="#00898b" fill-opacity="1"><g transform="translate(44.7696, 4.402338)"><g><path d="M 0.46875 -2.890625 L 0.78125 -2.890625 L 0.78125 0 L 0.46875 0 Z M 0.46875 -2.890625 "/></g></g></g><g fill="#00898b" fill-opacity="1"><g transform="translate(47.785365, 4.402338)"><g><path d="M 2.890625 -2.890625 L 2.890625 0 L 2.640625 0 L 0.78125 -2.359375 L 0.78125 0 L 0.46875 0 L 0.46875 -2.890625 L 0.71875 -2.890625 L 2.59375 -0.546875 L 2.59375 -2.890625 Z M 2.890625 -2.890625 "/></g></g></g><g fill="#00898b" fill-opacity="1"><g transform="translate(52.92089, 4.402338)"><g><path d="M 0.78125 -2.640625 L 0.78125 -1.5 L 2.28125 -1.5 L 2.28125 -1.234375 L 0.78125 -1.234375 L 0.78125 0 L 0.46875 0 L 0.46875 -2.890625 L 2.453125 -2.890625 L 2.453125 -2.640625 Z M 0.78125 -2.640625 "/></g></g></g><g fill="#00898b" fill-opacity="1"><g transform="translate(57.172837, 4.402338)"><g><path d="M 2.296875 -0.78125 L 0.671875 -0.78125 L 0.328125 0 L 0.015625 0 L 1.328125 -2.890625 L 1.640625 -2.890625 L 2.953125 0 L 2.640625 0 Z M 2.171875 -1.015625 L 1.484375 -2.578125 L 0.78125 -1.015625 Z M 2.171875 -1.015625 "/></g></g></g><g fill="#00898b" fill-opacity="1"><g transform="translate(61.91013, 4.402338)"><g><path d="M 2.890625 -2.890625 L 2.890625 0 L 2.640625 0 L 0.78125 -2.359375 L 0.78125 0 L 0.46875 0 L 0.46875 -2.890625 L 0.71875 -2.890625 L 2.59375 -0.546875 L 2.59375 -2.890625 Z M 2.890625 -2.890625 "/></g></g></g><g fill="#00898b" fill-opacity="1"><g transform="translate(67.045655, 4.402338)"><g><path d="M 1.03125 -2.640625 L 0.015625 -2.640625 L 0.015625 -2.890625 L 2.359375 -2.890625 L 2.359375 -2.640625 L 1.34375 -2.640625 L 1.34375 0 L 1.03125 0 Z M 1.03125 -2.640625 "/></g></g></g><g fill="#00898b" fill-opacity="1"><g transform="translate(71.189744, 4.402338)"><g><path d="M 0.46875 -2.890625 L 0.78125 -2.890625 L 0.78125 0 L 0.46875 0 Z M 0.46875 -2.890625 "/></g></g></g><g fill="#00898b" fill-opacity="1"><g transform="translate(74.205509, 4.402338)"><g><path d="M 0.46875 -2.890625 L 0.78125 -2.890625 L 0.78125 -0.265625 L 2.40625 -0.265625 L 2.40625 0 L 0.46875 0 Z M 0.46875 -2.890625 "/></g></g></g></g></g><path fill="#e1c1a7" d="M 14.582031 15.554688 C 14.558594 16.761719 15.246094 17.730469 15.984375 18.664062 C 16.398438 19.210938 16.777344 19.8125 17.1875 20.339844 C 18.433594 22.082031 20.09375 21.121094 21.554688 20.140625 C 22.328125 19.671875 23.125 19.367188 23.914062 18.890625 C 24.53125 18.511719 25.21875 18.175781 25.804688 17.722656 C 28.453125 15.53125 27.5 11.59375 24.378906 10.433594 C 22.105469 9.578125 19.425781 10.085938 17.339844 11.253906 C 15.863281 12.164062 14.535156 13.703125 14.578125 15.523438 L 14.578125 15.550781 Z M 14.582031 15.554688 " fill-opacity="1" fill-rule="nonzero"/><g clip-path="url(#f37b98785d)"><path fill="#693e26" d="M 29.234375 18.597656 C 28.167969 17.761719 28.066406 17.347656 28.328125 14.878906 C 28.335938 14.835938 28.335938 14.789062 28.335938 14.746094 C 28.304688 12.617188 27.507812 10.910156 26.035156 9.804688 C 23.84375 8.167969 20.816406 8.210938 18.714844 8.792969 C 18.707031 8.792969 18.703125 8.796875 18.699219 8.796875 C 15.417969 10.09375 13.628906 11.984375 13.375 14.425781 C 13.25 15.664062 13.867188 17.160156 14.886719 18.066406 C 15.648438 18.738281 16.550781 19 17.429688 18.804688 C 17.503906 18.785156 17.554688 18.707031 17.535156 18.628906 C 17.519531 18.554688 17.441406 18.503906 17.363281 18.519531 C 16.355469 18.746094 15.566406 18.28125 15.078125 17.847656 C 14.140625 17.015625 13.546875 15.585938 13.664062 14.453125 C 13.902344 12.132812 15.632812 10.324219 18.796875 9.070312 C 21.355469 8.363281 24.125 8.742188 25.859375 10.039062 C 27.277344 11.101562 28.015625 12.6875 28.046875 14.75 C 28.046875 14.78125 28.046875 14.816406 28.042969 14.847656 C 27.769531 17.402344 27.902344 17.925781 29.0625 18.832031 C 29.386719 19.054688 29.558594 19.355469 29.511719 19.613281 C 29.480469 19.796875 29.335938 19.933594 29.097656 20 C 28.601562 20.164062 28.308594 20.417969 28.226562 20.75 C 28.101562 21.265625 28.554688 21.765625 28.644531 21.855469 C 28.664062 21.878906 28.671875 21.898438 28.664062 21.925781 C 28.660156 21.957031 28.640625 21.988281 28.617188 22.003906 C 28.339844 22.183594 28.246094 22.480469 28.367188 22.804688 C 28.398438 22.894531 28.398438 22.90625 28.234375 22.996094 C 28.160156 23.035156 28.078125 23.078125 28.007812 23.148438 C 27.742188 23.398438 27.78125 23.582031 27.828125 23.796875 C 27.84375 23.851562 27.855469 23.914062 27.871094 24.007812 C 27.992188 24.507812 27.96875 24.863281 27.800781 25.070312 C 27.671875 25.234375 27.4375 25.308594 27.109375 25.304688 C 24.964844 25.113281 23.390625 25.140625 22.640625 27.203125 C 22.628906 27.234375 22.617188 27.273438 22.609375 27.304688 L 22.570312 27.4375 C 22.34375 28.300781 22.191406 28.867188 22.816406 29.835938 C 22.847656 29.882812 22.859375 29.910156 22.792969 29.964844 C 21.984375 30.660156 15.339844 30.574219 14.335938 29.613281 C 14.230469 29.515625 14.226562 29.433594 14.324219 29.3125 C 16.03125 26.78125 16.078125 26.109375 16.238281 23.894531 C 16.261719 23.59375 16.285156 23.269531 16.316406 22.90625 C 16.359375 22.273438 16.234375 21.589844 15.941406 20.875 C 15.917969 20.820312 15.890625 20.75 15.859375 20.667969 C 15.816406 20.570312 15.769531 20.449219 15.710938 20.3125 C 15.5625 19.941406 15.722656 19.640625 15.929688 19.476562 C 16.125 19.320312 16.472656 19.21875 16.800781 19.449219 C 17.367188 19.847656 18.308594 20.511719 19.03125 20.035156 C 19.246094 19.898438 19.398438 19.667969 19.457031 19.382812 C 19.648438 18.546875 18.871094 18.332031 18.246094 18.15625 C 17.945312 18.070312 17.632812 17.984375 17.453125 17.84375 C 17.1875 17.632812 17.15625 17.246094 17.164062 17.007812 C 17.613281 17.035156 18.242188 17.011719 18.59375 16.75 C 19.019531 16.429688 19.027344 15.9375 18.8125 15.621094 C 18.605469 15.308594 18.144531 15.113281 17.625 15.417969 C 17.292969 15.617188 17.003906 16.140625 16.90625 16.699219 C 16.886719 16.695312 16.863281 16.691406 16.84375 16.691406 C 16.484375 16.648438 15.980469 16.457031 15.726562 16.0625 C 15.539062 15.777344 15.515625 15.414062 15.648438 14.988281 C 15.792969 14.515625 16.050781 14.132812 16.363281 13.914062 C 16.375 14.039062 16.40625 14.160156 16.46875 14.273438 C 16.570312 14.46875 16.738281 14.605469 16.964844 14.660156 C 17.179688 14.707031 17.390625 14.636719 17.519531 14.46875 C 17.65625 14.292969 17.679688 14.0625 17.582031 13.867188 C 17.5 13.691406 17.351562 13.5625 17.152344 13.496094 C 17.003906 13.449219 16.835938 13.441406 16.675781 13.464844 C 16.691406 13.398438 16.710938 13.332031 16.734375 13.269531 C 17.03125 12.433594 17.660156 11.917969 18.601562 11.730469 C 18.632812 11.726562 18.660156 11.722656 18.691406 11.722656 C 18.644531 11.816406 18.613281 11.90625 18.601562 12 C 18.558594 12.222656 18.628906 12.476562 18.785156 12.65625 C 18.921875 12.808594 19.105469 12.886719 19.292969 12.871094 C 19.507812 12.855469 19.679688 12.730469 19.761719 12.53125 C 19.863281 12.296875 19.820312 12.003906 19.664062 11.816406 C 19.5625 11.675781 19.417969 11.574219 19.242188 11.507812 C 19.917969 10.949219 21.265625 10.644531 22.0625 10.972656 C 21.71875 11.175781 21.503906 11.472656 21.46875 11.792969 C 21.441406 12.003906 21.507812 12.210938 21.644531 12.371094 C 21.773438 12.519531 21.953125 12.601562 22.144531 12.601562 C 22.148438 12.601562 22.160156 12.601562 22.164062 12.601562 C 22.570312 12.601562 22.933594 12.269531 22.972656 11.867188 C 23.003906 11.582031 22.886719 11.277344 22.667969 11.039062 C 23.421875 10.851562 24.308594 11.105469 24.8125 11.683594 C 24.640625 11.71875 24.484375 11.78125 24.347656 11.878906 C 24.09375 12.042969 23.9375 12.316406 23.933594 12.605469 C 23.929688 12.871094 24.046875 13.109375 24.265625 13.261719 C 24.472656 13.40625 24.714844 13.441406 24.9375 13.355469 C 25.171875 13.265625 25.347656 13.058594 25.402344 12.800781 C 25.46875 12.542969 25.445312 12.253906 25.335938 11.984375 C 25.367188 11.988281 25.398438 12 25.429688 12.011719 C 26.035156 12.210938 26.492188 12.707031 26.6875 13.375 C 26.890625 14.0625 26.765625 14.777344 26.355469 15.28125 C 26.339844 15.296875 26.328125 15.3125 26.316406 15.324219 C 26.238281 14.945312 25.941406 14.636719 25.59375 14.570312 C 25.375 14.523438 25.132812 14.570312 24.941406 14.707031 C 24.773438 14.820312 24.671875 14.984375 24.644531 15.167969 C 24.617188 15.429688 24.726562 15.671875 24.945312 15.835938 C 25.226562 16.039062 25.644531 16.082031 25.953125 15.941406 C 25.953125 15.941406 25.957031 15.9375 25.960938 15.9375 C 25.824219 16.234375 25.542969 16.484375 25.242188 16.617188 C 25.039062 16.71875 24.789062 16.753906 24.570312 16.714844 C 24.554688 16.714844 24.539062 16.710938 24.523438 16.707031 C 24.609375 16.527344 24.621094 16.300781 24.558594 16.132812 C 24.507812 15.996094 24.410156 15.898438 24.269531 15.84375 C 24.105469 15.789062 23.949219 15.828125 23.847656 15.953125 C 23.726562 16.097656 23.710938 16.324219 23.808594 16.503906 C 23.878906 16.636719 23.976562 16.75 24.101562 16.835938 C 23.875 17.109375 23.527344 17.300781 23.128906 17.351562 C 22.617188 17.417969 22.128906 17.25 21.816406 16.898438 C 21.660156 16.734375 21.546875 16.398438 21.507812 16.070312 C 21.589844 16.046875 21.675781 16.023438 21.765625 16.003906 C 22.304688 15.867188 22.917969 15.710938 23.042969 15.117188 C 23.105469 14.832031 22.902344 14.519531 22.582031 14.410156 C 22.210938 14.285156 21.683594 14.4375 21.304688 15.234375 C 21.226562 15.402344 21.195312 15.625 21.199219 15.867188 C 20.949219 15.957031 20.75 16.085938 20.664062 16.308594 C 20.558594 16.585938 20.65625 16.941406 20.976562 17.429688 C 21.222656 17.804688 21.28125 18.117188 21.15625 18.355469 C 20.988281 18.664062 20.519531 18.824219 20.140625 18.824219 C 19.761719 18.824219 19.996094 18.890625 19.996094 18.96875 C 19.996094 19.046875 20.058594 19.113281 20.140625 19.113281 C 20.589844 19.113281 21.179688 18.921875 21.410156 18.492188 C 21.535156 18.261719 21.605469 17.859375 21.222656 17.273438 C 20.960938 16.882812 20.867188 16.589844 20.933594 16.414062 C 20.976562 16.308594 21.082031 16.230469 21.226562 16.167969 C 21.28125 16.535156 21.414062 16.898438 21.601562 17.097656 C 21.972656 17.519531 22.554688 17.722656 23.164062 17.640625 C 23.664062 17.578125 24.089844 17.332031 24.363281 16.96875 C 24.410156 16.984375 24.460938 16.996094 24.511719 17.007812 C 24.796875 17.054688 25.105469 17.011719 25.359375 16.886719 C 25.8125 16.683594 26.25 16.253906 26.320312 15.71875 C 26.410156 15.644531 26.496094 15.5625 26.570312 15.464844 C 27.042969 14.890625 27.183594 14.078125 26.957031 13.296875 C 26.734375 12.535156 26.210938 11.96875 25.511719 11.738281 C 25.394531 11.699219 25.273438 11.679688 25.15625 11.671875 C 25.136719 11.640625 25.113281 11.609375 25.089844 11.582031 C 24.488281 10.8125 23.320312 10.5 22.394531 10.828125 C 21.449219 10.242188 19.652344 10.648438 18.890625 11.441406 C 18.785156 11.429688 18.671875 11.433594 18.558594 11.449219 C 18.558594 11.449219 18.558594 11.449219 18.554688 11.449219 C 18.554688 11.449219 18.554688 11.449219 18.550781 11.449219 C 18.550781 11.449219 18.550781 11.449219 18.546875 11.449219 C 18.546875 11.449219 18.542969 11.449219 18.542969 11.449219 C 17.507812 11.652344 16.789062 12.25 16.457031 13.171875 C 16.414062 13.285156 16.378906 13.425781 16.359375 13.574219 C 16.355469 13.578125 16.347656 13.578125 16.339844 13.582031 C 15.910156 13.820312 15.554688 14.300781 15.367188 14.90625 C 15.203125 15.417969 15.242188 15.859375 15.476562 16.222656 C 15.785156 16.699219 16.363281 16.925781 16.800781 16.980469 C 16.820312 16.984375 16.84375 16.984375 16.871094 16.988281 C 16.847656 17.46875 16.988281 17.851562 17.265625 18.070312 C 17.492188 18.25 17.832031 18.34375 18.164062 18.4375 C 18.867188 18.632812 19.292969 18.78125 19.167969 19.324219 C 19.121094 19.53125 19.015625 19.699219 18.867188 19.796875 C 18.308594 20.160156 17.464844 19.570312 16.960938 19.214844 C 16.582031 18.949219 16.105469 18.960938 15.742188 19.25 C 15.382812 19.535156 15.261719 19.996094 15.4375 20.421875 C 15.496094 20.558594 15.546875 20.679688 15.585938 20.777344 C 15.621094 20.859375 15.648438 20.929688 15.671875 20.980469 C 15.945312 21.65625 16.0625 22.296875 16.023438 22.882812 C 15.992188 23.246094 15.96875 23.574219 15.945312 23.871094 C 15.789062 26.03125 15.742188 26.683594 14.085938 29.140625 C 13.902344 29.375 13.921875 29.621094 14.132812 29.824219 C 14.710938 30.375 16.816406 30.636719 18.59375 30.695312 C 18.871094 30.703125 19.15625 30.707031 19.445312 30.707031 C 20.933594 30.707031 22.523438 30.574219 22.976562 30.183594 C 23.148438 30.039062 23.171875 29.84375 23.050781 29.671875 C 22.5 28.8125 22.625 28.351562 22.847656 27.511719 L 22.882812 27.375 C 22.890625 27.351562 22.898438 27.328125 22.90625 27.300781 C 23.589844 25.425781 24.9375 25.402344 27.089844 25.589844 C 27.515625 25.601562 27.832031 25.488281 28.023438 25.25 C 28.246094 24.972656 28.289062 24.53125 28.148438 23.953125 C 28.136719 23.867188 28.121094 23.796875 28.105469 23.730469 C 28.0625 23.542969 28.050781 23.496094 28.199219 23.355469 C 28.242188 23.316406 28.300781 23.285156 28.363281 23.25 C 28.511719 23.171875 28.757812 23.039062 28.628906 22.703125 C 28.578125 22.570312 28.5625 22.378906 28.761719 22.25 C 28.859375 22.183594 28.925781 22.082031 28.941406 21.964844 C 28.957031 21.855469 28.925781 21.746094 28.84375 21.65625 C 28.800781 21.613281 28.410156 21.195312 28.5 20.816406 C 28.554688 20.589844 28.785156 20.40625 29.171875 20.277344 C 29.511719 20.183594 29.738281 19.960938 29.789062 19.660156 C 29.855469 19.285156 29.640625 18.890625 29.222656 18.597656 Z M 17.773438 15.671875 C 18.15625 15.445312 18.445312 15.589844 18.574219 15.785156 C 18.707031 15.984375 18.71875 16.300781 18.421875 16.523438 C 18.175781 16.707031 17.675781 16.75 17.203125 16.726562 C 17.289062 16.265625 17.523438 15.820312 17.773438 15.671875 Z M 21.578125 15.355469 C 21.789062 14.90625 22.070312 14.65625 22.347656 14.65625 C 22.628906 14.65625 22.453125 14.664062 22.5 14.679688 C 22.683594 14.742188 22.804688 14.910156 22.773438 15.054688 C 22.683594 15.472656 22.207031 15.589844 21.707031 15.71875 C 21.636719 15.738281 21.566406 15.753906 21.5 15.769531 C 21.503906 15.609375 21.527344 15.460938 21.578125 15.351562 Z M 24.269531 16.59375 C 24.195312 16.539062 24.125 16.46875 24.078125 16.367188 C 24.03125 16.28125 24.042969 16.183594 24.082031 16.140625 C 24.089844 16.128906 24.105469 16.113281 24.140625 16.113281 C 24.179688 16.113281 24.167969 16.113281 24.1875 16.117188 C 24.242188 16.140625 24.277344 16.175781 24.300781 16.238281 C 24.339844 16.335938 24.324219 16.480469 24.269531 16.59375 Z M 25.847656 15.675781 C 25.625 15.777344 25.324219 15.742188 25.125 15.601562 C 25.027344 15.53125 24.917969 15.402344 24.941406 15.207031 C 24.953125 15.105469 25.015625 15.011719 25.113281 14.945312 C 25.207031 14.878906 25.320312 14.84375 25.433594 14.84375 C 25.546875 14.84375 25.507812 14.847656 25.542969 14.855469 C 25.820312 14.90625 26.007812 15.175781 26.046875 15.414062 C 26.054688 15.464844 26.0625 15.515625 26.058594 15.5625 C 25.992188 15.609375 25.917969 15.648438 25.847656 15.679688 Z M 25.011719 11.957031 C 25.148438 12.210938 25.195312 12.492188 25.132812 12.734375 C 25.09375 12.898438 24.988281 13.03125 24.839844 13.085938 C 24.710938 13.136719 24.570312 13.117188 24.445312 13.027344 C 24.304688 12.925781 24.230469 12.78125 24.230469 12.613281 C 24.238281 12.421875 24.347656 12.234375 24.519531 12.117188 C 24.65625 12.019531 24.828125 11.964844 25.011719 11.953125 Z M 22.367188 11.148438 C 22.59375 11.335938 22.71875 11.597656 22.691406 11.839844 C 22.667969 12.101562 22.421875 12.320312 22.15625 12.3125 C 22.046875 12.3125 21.945312 12.265625 21.871094 12.183594 C 21.789062 12.089844 21.75 11.957031 21.765625 11.832031 C 21.796875 11.527344 22.070312 11.292969 22.316406 11.175781 C 22.332031 11.164062 22.347656 11.15625 22.367188 11.152344 Z M 18.890625 12.050781 C 18.90625 11.949219 18.949219 11.84375 19.019531 11.746094 C 19.1875 11.78125 19.34375 11.859375 19.441406 11.992188 C 19.535156 12.105469 19.558594 12.285156 19.5 12.421875 C 19.472656 12.488281 19.410156 12.574219 19.277344 12.585938 C 19.152344 12.597656 19.0625 12.527344 19.007812 12.464844 C 18.910156 12.355469 18.863281 12.191406 18.890625 12.054688 Z M 17.066406 13.773438 C 17.152344 13.800781 17.265625 13.859375 17.324219 13.992188 C 17.375 14.089844 17.363281 14.203125 17.296875 14.289062 C 17.234375 14.367188 17.136719 14.402344 17.03125 14.378906 C 16.890625 14.34375 16.789062 14.265625 16.726562 14.136719 C 16.671875 14.03125 16.648438 13.902344 16.648438 13.769531 C 16.785156 13.730469 16.9375 13.730469 17.066406 13.769531 Z M 17.066406 13.773438 " fill-opacity="1" fill-rule="nonzero"/></g><g clip-path="url(#ec5b7cfcb9)"><g transform="matrix(1, 0, 0, 1, 4, 11)"><g clip-path="url(#036c1fd288)"><g clip-path="url(#266a123b24)"><path fill="#693e26" d="M 17.222656 19.492188 C 17.203125 17.945312 16.683594 16.425781 15.769531 15.179688 C 14.847656 13.921875 13.515625 13 12.027344 12.542969 C 11.28125 12.3125 10.5 12.199219 9.714844 12.214844 C 8.84375 12.230469 7.988281 12.425781 7.128906 12.539062 C 6.285156 12.652344 5.398438 12.691406 4.582031 12.398438 C 3.929688 12.164062 3.359375 11.734375 2.9375 11.1875 C 2.515625 10.640625 2.242188 9.992188 2.167969 9.304688 C 2.089844 8.621094 2.242188 7.925781 2.566406 7.316406 C 3.183594 6.15625 4.496094 5.230469 5.851562 5.363281 C 6.453125 5.425781 7.0625 5.671875 7.417969 6.175781 C 7.820312 6.75 7.703125 7.503906 7.289062 8.035156 C 6.308594 9.300781 4.355469 8.933594 3.105469 8.324219 C 1.855469 7.710938 0.804688 6.601562 0.429688 5.238281 C 0.0742188 3.933594 0.355469 2.460938 1.199219 1.402344 C 1.40625 1.140625 1.648438 0.914062 1.914062 0.71875 C 2.085938 0.59375 2.246094 0.878906 2.078125 1 C 1.042969 1.761719 0.542969 3.082031 0.613281 4.34375 C 0.691406 5.675781 1.46875 6.863281 2.546875 7.617188 C 3.09375 8 3.710938 8.277344 4.359375 8.429688 C 5.078125 8.597656 5.917969 8.644531 6.578125 8.246094 C 7.121094 7.914062 7.511719 7.222656 7.269531 6.589844 C 7.070312 6.0625 6.496094 5.792969 5.96875 5.707031 C 4.707031 5.503906 3.464844 6.363281 2.875 7.429688 C 2.230469 8.605469 2.40625 10.035156 3.253906 11.0625 C 3.667969 11.5625 4.214844 11.953125 4.839844 12.140625 C 5.644531 12.378906 6.492188 12.304688 7.3125 12.1875 C 8.132812 12.066406 8.949219 11.894531 9.78125 11.886719 C 10.519531 11.878906 11.257812 11.980469 11.964844 12.183594 C 13.378906 12.585938 14.679688 13.390625 15.644531 14.503906 C 16.601562 15.605469 17.242188 16.980469 17.460938 18.425781 C 17.515625 18.777344 17.542969 19.132812 17.550781 19.492188 C 17.550781 19.699219 17.226562 19.699219 17.222656 19.492188 " fill-opacity="1" fill-rule="nonzero"/></g></g></g></g><g clip-path="url(#815fde59a0)"><g clip-path="url(#68dc0caa03)"><g clip-path="url(#6950e902a0)"><path fill="#00898b" d="M 7.726562 10.605469 C 7.722656 10.605469 7.722656 10.601562 7.722656 10.601562 C 7.710938 10.585938 7.714844 10.558594 7.730469 10.542969 C 7.996094 10.347656 8.300781 10.210938 8.632812 10.136719 C 9.019531 10.054688 9.433594 10.0625 9.863281 10.15625 C 9.886719 10.160156 9.898438 10.179688 9.894531 10.203125 C 9.890625 10.226562 9.867188 10.238281 9.847656 10.234375 C 9.429688 10.144531 9.027344 10.136719 8.652344 10.21875 C 8.328125 10.289062 8.035156 10.421875 7.78125 10.609375 C 7.761719 10.625 7.738281 10.621094 7.726562 10.605469 Z M 7.726562 10.605469 " fill-opacity="1" fill-rule="nonzero"/></g></g></g><g clip-path="url(#3fdd072f3e)"><g clip-path="url(#93658ab6a0)"><g clip-path="url(#49010dcded)"><path fill="#00898b" d="M 7.5625 10.414062 C 7.550781 10.394531 7.550781 10.371094 7.566406 10.355469 C 7.800781 10.140625 7.980469 9.875 8.105469 9.566406 C 8.25 9.210938 8.316406 8.816406 8.296875 8.386719 C 8.296875 8.367188 8.316406 8.347656 8.339844 8.34375 C 8.359375 8.34375 8.378906 8.363281 8.382812 8.386719 C 8.398438 8.824219 8.332031 9.230469 8.183594 9.597656 C 8.050781 9.917969 7.863281 10.191406 7.625 10.417969 C 7.605469 10.433594 7.582031 10.429688 7.566406 10.414062 C 7.566406 10.414062 7.566406 10.414062 7.5625 10.414062 Z M 7.5625 10.414062 " fill-opacity="1" fill-rule="nonzero"/></g></g></g><g clip-path="url(#f197191f2a)"><g clip-path="url(#d5c30f3885)"><g clip-path="url(#ac11f77cdc)"><path fill="#00898b" d="M 10.441406 11.234375 C 9.824219 10.980469 9.183594 10.847656 8.515625 10.859375 C 7.136719 10.898438 7.242188 11.007812 7.519531 9.664062 C 7.652344 8.96875 7.628906 8.273438 7.453125 7.585938 C 7.335938 6.875 6.328125 5.738281 6.167969 7.082031 C 6 7.601562 4.96875 7.652344 4.980469 8.484375 C 4.554688 8.742188 4.445312 9.300781 4.65625 9.738281 C 3.121094 9.972656 3.394531 12.375 4.992188 12.15625 C 5.40625 12.097656 5.78125 11.921875 6.179688 11.800781 C 5.953125 12.207031 5.71875 12.582031 5.59375 13.027344 C 5.222656 14.433594 7.441406 15.121094 7.953125 13.667969 C 8.347656 13.949219 8.914062 13.9375 9.246094 13.558594 C 10.082031 13.753906 10.335938 12.546875 10.949219 12.640625 C 12.226562 12.621094 11.042969 11.390625 10.441406 11.234375 Z M 6.226562 11.660156 C 5.566406 11.929688 4.566406 12.390625 4.023438 11.722656 C 3.214844 10.871094 4.277344 9.492188 4.804688 9.941406 C 5 10.394531 6.976562 10.824219 6.773438 11.238281 C 6.554688 11.339844 6.4375 11.5625 6.226562 11.660156 Z M 7.546875 14.09375 C 6.808594 14.800781 5.480469 14.132812 5.671875 13.121094 C 5.855469 12.429688 6.238281 11.773438 6.816406 11.339844 C 6.957031 11.175781 7.054688 11.441406 7.105469 11.550781 C 7.253906 12.015625 7.382812 12.488281 7.496094 12.964844 C 7.625 13.5 8.15625 13.589844 7.546875 14.09375 Z M 11.304688 12.480469 C 11.164062 12.539062 11.003906 12.550781 10.847656 12.542969 C 10.332031 12.550781 10.160156 13.253906 9.65625 13.414062 C 9.449219 13.566406 9.292969 13.398438 9.164062 13.480469 C 8.910156 13.765625 8.527344 13.84375 8.183594 13.683594 C 7.34375 13.253906 7.558594 12.09375 7.125 11.378906 C 6.625 10.417969 5.214844 10.574219 4.722656 9.636719 C 4.554688 9.257812 4.667969 8.796875 5.027344 8.582031 C 5.0625 8.558594 5.101562 8.542969 5.09375 8.496094 C 5.050781 7.945312 5.648438 7.675781 6.042969 7.433594 C 6.484375 7.136719 6.179688 6 6.992188 6.84375 C 7.695312 7.832031 7.546875 9.144531 7.296875 10.265625 C 7.316406 10.457031 7.144531 10.847656 7.390625 10.914062 C 7.730469 10.976562 8.070312 10.984375 8.414062 10.957031 C 9.417969 10.964844 10.597656 11.140625 11.265625 11.960938 C 11.359375 12.109375 11.558594 12.386719 11.304688 12.480469 Z M 11.304688 12.480469 " fill-opacity="1" fill-rule="nonzero"/></g></g></g><g clip-path="url(#565c6b9192)"><g clip-path="url(#b825af389f)"><g clip-path="url(#d3269a07d4)"><path fill="#00898b" d="M 5.929688 11.648438 C 6.101562 11.519531 6.296875 11.421875 6.425781 11.25 C 6.515625 11.144531 6.621094 11.058594 6.742188 10.992188 C 6.914062 10.898438 7.050781 10.769531 7.15625 10.605469 C 7.265625 10.414062 7.457031 10.242188 7.691406 10.269531 C 8.128906 10.355469 7.769531 10.910156 7.484375 10.964844 C 7.125 11.070312 6.972656 11.441406 6.652344 11.601562 C 6.414062 11.734375 6.277344 11.992188 6.027344 12.117188 C 5.953125 12.15625 5.605469 12.28125 5.628906 12.128906 C 5.667969 11.933594 5.777344 11.769531 5.933594 11.652344 C 5.933594 11.652344 5.929688 11.648438 5.929688 11.648438 Z M 5.929688 11.648438 " fill-opacity="1" fill-rule="nonzero"/></g></g></g></svg>