<svg xmlns="http://www.w3.org/2000/svg" xmlns:xlink="http://www.w3.org/1999/xlink" width="336" zoomAndPan="magnify" viewBox="0 0 252 143.999998" height="192" preserveAspectRatio="xMidYMid meet" version="1.0"><defs><clipPath id="cb51a4e3a3"><path d="M 172 111 L 184 111 L 184 119.433594 L 172 119.433594 Z M 172 111 " clip-rule="nonzero"/></clipPath><clipPath id="c36ee7000c"><path d="M 194 111 L 206 111 L 206 119.433594 L 194 119.433594 Z M 194 111 " clip-rule="nonzero"/></clipPath><clipPath id="a237f3e98c"><path d="M 18.109375 80 L 26 80 L 26 92 L 18.109375 92 Z M 18.109375 80 " clip-rule="nonzero"/></clipPath></defs><path fill="#000000" d="M 198.582031 32.679688 C 195.039062 31.054688 191.1875 30.207031 187.292969 30.125 C 183.417969 30.046875 179.519531 30.707031 175.878906 32.039062 C 172.226562 33.378906 168.820312 35.375 165.929688 37.988281 C 162.871094 40.746094 160.507812 44.179688 158.917969 47.980469 C 157.246094 51.976562 156.464844 56.34375 156.554688 60.671875 C 156.644531 65.011719 157.605469 69.324219 159.4375 73.257812 C 161.242188 77.144531 163.929688 80.628906 167.15625 83.4375 C 170.394531 86.257812 174.1875 88.433594 178.273438 89.753906 C 182.691406 91.175781 187.417969 91.535156 192.007812 90.910156 C 196.59375 90.285156 201.070312 88.671875 204.941406 86.117188 C 208.277344 83.917969 211.121094 81.03125 213.363281 77.722656 C 215.59375 74.425781 217.21875 70.703125 218.132812 66.824219 C 219.046875 62.933594 219.242188 58.882812 218.632812 54.925781 C 218.015625 50.953125 216.515625 47.140625 214.316406 43.777344 C 212.097656 40.382812 209.21875 37.453125 205.902344 35.128906 C 202.601562 32.8125 198.839844 31.109375 194.902344 30.234375 C 190.921875 29.347656 186.808594 29.34375 182.824219 30.195312 C 178.855469 31.039062 175.066406 32.714844 171.691406 34.957031 C 168.257812 37.238281 165.214844 40.09375 162.679688 43.34375 C 160.042969 46.730469 157.960938 50.503906 156.519531 54.550781 C 154.828125 59.300781 154 64.4375 154.5 69.472656 C 154.941406 73.90625 156.429688 78.171875 158.820312 81.925781 C 161.128906 85.542969 164.210938 88.660156 167.804688 90.996094 C 171.753906 93.5625 176.292969 95.109375 180.949219 95.695312 C 185.550781 96.269531 190.308594 95.867188 194.734375 94.476562 C 198.574219 93.269531 202.132812 91.3125 205.285156 88.820312 C 208.441406 86.324219 211.160156 83.269531 213.308594 79.863281 C 215.429688 76.5 216.996094 72.761719 217.828125 68.871094 C 218.675781 64.917969 218.75 60.84375 218.011719 56.871094 C 217.285156 52.972656 215.792969 49.21875 213.730469 45.839844 C 211.664062 42.453125 209.011719 39.40625 205.925781 36.917969 C 202.835938 34.429688 199.328125 32.472656 195.539062 31.269531 C 191.410156 29.957031 186.988281 29.605469 182.691406 30.136719 C 178.15625 30.695312 173.75 32.1875 169.835938 34.558594 C 166 36.878906 162.71875 40.035156 160.191406 43.742188 C 157.707031 47.386719 155.957031 51.566406 155.132812 55.90625 C 154.355469 59.996094 154.402344 64.1875 155.320312 68.25 C 156.195312 72.117188 157.820312 75.820312 159.996094 79.125 C 162.199219 82.472656 164.960938 85.425781 168.144531 87.851562 C 171.316406 90.265625 174.925781 92.125 178.753906 93.222656 C 182.5625 94.3125 186.585938 94.621094 190.519531 94.203125 C 194.480469 93.785156 198.335938 92.675781 201.941406 90.976562 C 205.53125 89.285156 208.851562 87 211.71875 84.25 C 214.578125 81.503906 216.996094 78.269531 218.734375 74.699219 C 220.535156 71.003906 221.605469 66.992188 221.980469 62.898438 C 222.351562 58.816406 222.011719 54.660156 221.015625 50.683594 C 220.027344 46.71875 218.367188 42.902344 216.082031 39.523438 C 213.78125 36.117188 210.859375 33.183594 207.449219 30.898438 C 204.070312 28.636719 200.253906 27.023438 196.304688 26.101562 C 192.34375 25.183594 188.21875 24.933594 184.183594 25.4375 C 180.125 25.945312 176.164062 27.175781 172.589844 29.195312 C 168.695312 31.394531 165.289062 34.414062 162.441406 37.859375 C 159.554688 41.355469 157.171875 45.277344 155.328125 49.417969 C 153.40625 53.738281 152.070312 58.3125 151.53125 63.015625 C 151.003906 67.59375 151.277344 72.3125 152.648438 76.726562 C 153.910156 80.804688 156.101562 84.527344 159.050781 87.605469 C 161.835938 90.511719 165.226562 92.824219 168.882812 94.484375 C 172.621094 96.183594 176.625 97.234375 180.710938 97.621094 C 184.789062 98.011719 188.921875 97.683594 192.90625 96.738281 C 196.90625 95.789062 200.765625 94.210938 204.296875 92.105469 C 207.816406 90.007812 211.039062 87.375 213.753906 84.300781 C 216.488281 81.207031 218.707031 77.675781 220.242188 73.832031 C 221.726562 70.117188 222.511719 66.128906 222.644531 62.132812 C 222.78125 58.101562 222.246094 54.03125 221.074219 50.171875 C 219.914062 46.351562 218.132812 42.703125 215.738281 39.511719 C 213.257812 36.203125 210.167969 33.40625 206.605469 31.316406 C 202.941406 29.160156 198.84375 27.738281 194.644531 27.113281 C 190.417969 26.484375 186.085938 26.621094 181.921875 27.609375 C 177.859375 28.570312 174.011719 30.363281 170.652344 32.851562 C 167.328125 35.316406 164.480469 38.386719 162.25 41.875 C 160.03125 45.339844 158.425781 49.222656 157.613281 53.257812 C 156.804688 57.289062 156.804688 61.433594 157.621094 65.460938 C 158.425781 69.425781 159.996094 73.246094 162.167969 76.652344 C 164.347656 80.070312 167.132812 83.082031 170.398438 85.476562 C 173.617188 87.835938 177.328125 89.550781 181.238281 90.363281 C 185.015625 91.144531 188.925781 91.121094 192.710938 90.398438 C 196.46875 89.679688 200.113281 88.253906 203.359375 86.214844 C 206.601562 84.179688 209.453125 81.523438 211.636719 78.367188 C 214.1875 74.671875 215.683594 70.328125 216.261719 65.886719 C 216.882812 61.136719 216.4375 56.25 215.121094 51.648438 C 213.832031 47.160156 211.714844 42.925781 209.082031 39.082031 C 206.632812 35.515625 203.75 32.265625 200.585938 29.324219 C 200.023438 28.804688 199.179688 29.648438 199.742188 30.171875 C 203.054688 33.25 206.070312 36.667969 208.566406 40.449219 C 211.070312 44.25 213.054688 48.40625 214.203125 52.820312 C 215.367188 57.289062 215.695312 62.027344 214.964844 66.597656 C 214.289062 70.820312 212.730469 74.882812 210.199219 78.335938 C 208.035156 81.289062 205.210938 83.746094 202.070312 85.601562 C 198.867188 87.496094 195.316406 88.773438 191.648438 89.378906 C 188.035156 89.976562 184.28125 89.882812 180.71875 89.023438 C 176.972656 88.117188 173.457031 86.359375 170.410156 84 C 167.332031 81.613281 164.726562 78.621094 162.71875 75.277344 C 160.707031 71.925781 159.300781 68.21875 158.621094 64.359375 C 157.941406 60.488281 158.074219 56.503906 158.957031 52.675781 C 159.859375 48.789062 161.5 45.101562 163.726562 41.796875 C 165.949219 38.5 168.78125 35.585938 172.046875 33.316406 C 175.382812 31 179.140625 29.386719 183.113281 28.566406 C 187.117188 27.738281 191.300781 27.707031 195.320312 28.429688 C 199.371094 29.15625 203.28125 30.625 206.769531 32.8125 C 210.117188 34.910156 213.019531 37.683594 215.292969 40.917969 C 217.511719 44.082031 219.148438 47.628906 220.175781 51.351562 C 221.210938 55.09375 221.632812 58.992188 221.421875 62.871094 C 221.210938 66.738281 220.359375 70.597656 218.828125 74.160156 C 217.261719 77.800781 215.050781 81.144531 212.367188 84.054688 C 209.675781 86.976562 206.53125 89.457031 203.085938 91.429688 C 199.632812 93.40625 195.894531 94.859375 192.007812 95.71875 C 188.128906 96.578125 184.125 96.808594 180.175781 96.371094 C 176.289062 95.945312 172.4375 94.867188 168.902344 93.183594 C 165.394531 91.511719 162.171875 89.238281 159.53125 86.375 C 156.734375 83.347656 154.710938 79.6875 153.589844 75.714844 C 152.367188 71.382812 152.207031 66.792969 152.804688 62.339844 C 153.414062 57.832031 154.773438 53.414062 156.691406 49.289062 C 158.535156 45.320312 160.863281 41.539062 163.703125 38.207031 C 166.515625 34.90625 169.84375 32.03125 173.664062 29.96875 C 177.089844 28.113281 180.898438 26.976562 184.769531 26.566406 C 188.671875 26.148438 192.644531 26.425781 196.457031 27.367188 C 200.289062 28.316406 203.945312 29.925781 207.199219 32.171875 C 210.433594 34.402344 213.199219 37.28125 215.347656 40.570312 C 217.511719 43.882812 219.058594 47.570312 219.972656 51.417969 C 220.886719 55.273438 221.152344 59.277344 220.753906 63.222656 C 220.359375 67.136719 219.273438 71.007812 217.496094 74.519531 C 215.761719 77.949219 213.40625 81.027344 210.613281 83.65625 C 207.8125 86.285156 204.585938 88.445312 201.101562 90.054688 C 197.660156 91.644531 193.933594 92.6875 190.15625 93.046875 C 186.332031 93.40625 182.457031 93.078125 178.769531 91.980469 C 175.097656 90.886719 171.65625 89.066406 168.621094 86.722656 C 165.59375 84.386719 162.964844 81.515625 160.882812 78.304688 C 158.789062 75.074219 157.25 71.496094 156.425781 67.730469 C 155.574219 63.835938 155.558594 59.789062 156.347656 55.882812 C 157.195312 51.679688 158.914062 47.675781 161.351562 44.152344 C 163.8125 40.597656 167.027344 37.597656 170.746094 35.402344 C 174.546875 33.164062 178.84375 31.734375 183.226562 31.269531 C 187.378906 30.828125 191.601562 31.21875 195.570312 32.535156 C 199.167969 33.726562 202.527344 35.640625 205.445312 38.0625 C 208.398438 40.511719 210.925781 43.460938 212.890625 46.757812 C 214.859375 50.0625 216.253906 53.703125 216.917969 57.496094 C 217.578125 61.273438 217.445312 65.175781 216.601562 68.910156 C 215.746094 72.6875 214.199219 76.277344 212.109375 79.527344 C 210.003906 82.796875 207.34375 85.714844 204.277344 88.105469 C 201.246094 90.464844 197.792969 92.300781 194.117188 93.417969 C 189.804688 94.722656 185.199219 95.066406 180.734375 94.472656 C 176.253906 93.871094 171.894531 92.292969 168.125 89.78125 C 164.683594 87.484375 161.75 84.421875 159.582031 80.890625 C 157.328125 77.214844 155.945312 73.054688 155.628906 68.746094 C 155.265625 63.835938 156.160156 58.898438 157.875 54.304688 C 159.296875 50.488281 161.34375 46.890625 163.894531 43.722656 C 166.398438 40.605469 169.378906 37.855469 172.742188 35.695312 C 176.046875 33.574219 179.703125 32.023438 183.558594 31.261719 C 187.375 30.507812 191.320312 30.589844 195.097656 31.503906 C 198.898438 32.425781 202.480469 34.121094 205.648438 36.40625 C 208.789062 38.671875 211.511719 41.546875 213.574219 44.828125 C 215.640625 48.117188 217.007812 51.804688 217.542969 55.660156 C 218.066406 59.4375 217.792969 63.324219 216.859375 67.019531 C 215.910156 70.769531 214.28125 74.335938 212.066406 77.507812 C 209.878906 80.636719 207.085938 83.363281 203.855469 85.398438 C 200.039062 87.800781 195.65625 89.316406 191.179688 89.820312 C 186.742188 90.316406 182.226562 89.863281 178.003906 88.402344 C 174.089844 87.050781 170.460938 84.863281 167.40625 82.066406 C 164.34375 79.257812 161.847656 75.847656 160.183594 72.03125 C 158.519531 68.21875 157.71875 64.03125 157.738281 59.875 C 157.757812 55.707031 158.605469 51.515625 160.324219 47.714844 C 161.945312 44.117188 164.3125 40.929688 167.304688 38.363281 C 170.128906 35.941406 173.453125 34.109375 176.96875 32.921875 C 180.515625 31.726562 184.265625 31.175781 188.003906 31.34375 C 191.433594 31.5 194.851562 32.277344 197.980469 33.710938 C 198.273438 33.847656 198.621094 33.796875 198.796875 33.496094 C 198.945312 33.238281 198.875 32.816406 198.582031 32.679688 " fill-opacity="1" fill-rule="nonzero"/><path fill="#000000" d="M 175.914062 73.242188 C 179.914062 78.234375 187.050781 79.199219 192.816406 77.121094 C 194.648438 76.460938 196.363281 75.527344 197.910156 74.347656 C 198.164062 74.152344 198.300781 73.835938 198.121094 73.53125 C 197.976562 73.277344 197.5625 73.121094 197.308594 73.316406 C 192.558594 76.9375 185.742188 78.339844 180.3125 75.378906 C 178.9375 74.628906 177.738281 73.621094 176.757812 72.398438 C 176.554688 72.144531 176.125 72.1875 175.914062 72.398438 C 175.667969 72.644531 175.714844 72.992188 175.914062 73.242188 " fill-opacity="1" fill-rule="nonzero"/><path fill="#000000" d="M 194.367188 60.191406 C 194.738281 58.171875 196.195312 56.414062 198.105469 55.664062 C 200.0625 54.894531 202.273438 55.316406 203.882812 56.664062 C 204.800781 57.4375 205.496094 58.4375 205.824219 59.601562 C 206.03125 60.339844 207.179688 60.023438 206.972656 59.28125 C 206.292969 56.878906 204.28125 54.957031 201.882812 54.308594 C 199.449219 53.648438 196.871094 54.472656 195.125 56.261719 C 194.164062 57.25 193.46875 58.511719 193.21875 59.875 C 193.082031 60.625 194.230469 60.949219 194.367188 60.191406 " fill-opacity="1" fill-rule="nonzero"/><path fill="#000000" d="M 180.242188 59.835938 C 179.539062 57.402344 177.640625 55.449219 175.28125 54.566406 C 172.941406 53.691406 170.257812 54.128906 168.226562 55.570312 C 167.0625 56.394531 166.105469 57.5 165.535156 58.816406 C 165.40625 59.113281 165.445312 59.457031 165.746094 59.632812 C 166 59.78125 166.433594 59.71875 166.5625 59.421875 C 167.433594 57.414062 169.238281 55.945312 171.359375 55.457031 C 173.453125 54.980469 175.648438 55.667969 177.207031 57.125 C 178.09375 57.953125 178.753906 58.984375 179.089844 60.15625 C 179.304688 60.894531 180.453125 60.578125 180.242188 59.835938 " fill-opacity="1" fill-rule="nonzero"/><path fill="#000000" d="M 179.042969 96.355469 C 179.675781 100.882812 180.308594 105.414062 180.9375 109.945312 C 181.117188 111.21875 181.292969 112.488281 181.472656 113.761719 C 181.507812 114.007812 181.722656 114.21875 182.066406 114.21875 C 182.363281 114.21875 182.699219 114.011719 182.664062 113.761719 C 182.03125 109.234375 181.398438 104.703125 180.769531 100.171875 C 180.589844 98.898438 180.414062 97.628906 180.234375 96.355469 C 180.203125 96.109375 179.984375 95.898438 179.640625 95.898438 C 179.34375 95.898438 179.007812 96.105469 179.042969 96.355469 " fill-opacity="1" fill-rule="nonzero"/><path fill="#000000" d="M 195.8125 95.433594 C 195.496094 100.425781 195.179688 105.414062 194.863281 110.40625 C 194.773438 111.832031 194.679688 113.257812 194.589844 114.683594 C 194.554688 115.269531 195.746094 115.269531 195.78125 114.683594 C 196.101562 109.691406 196.417969 104.703125 196.734375 99.710938 C 196.824219 98.285156 196.914062 96.859375 197.003906 95.433594 C 197.042969 94.847656 195.851562 94.847656 195.8125 95.433594 " fill-opacity="1" fill-rule="nonzero"/><g clip-path="url(#cb51a4e3a3)"><path fill="#000000" d="M 172.40625 114.40625 C 171.851562 116.054688 173.039062 117.453125 174.40625 118.203125 C 176.011719 119.082031 177.976562 119.425781 179.78125 119.167969 C 181.535156 118.917969 183.578125 117.636719 183.40625 115.617188 C 183.226562 113.539062 181.113281 112.117188 179.210938 111.800781 C 177.898438 111.582031 176.464844 111.71875 175.199219 112.121094 C 174.003906 112.5 172.867188 113.183594 172.40625 114.40625 C 172.292969 114.707031 172.535156 115.0625 172.824219 115.140625 C 173.160156 115.234375 173.441406 115.027344 173.554688 114.722656 C 173.835938 113.984375 174.667969 113.5625 175.367188 113.324219 C 176.320312 112.996094 177.34375 112.867188 178.347656 112.902344 C 179.828125 112.957031 181.71875 113.804688 182.15625 115.347656 C 182.328125 115.953125 182.148438 116.554688 181.660156 117.042969 C 181.132812 117.566406 180.511719 117.820312 179.800781 117.960938 C 178.421875 118.230469 176.824219 117.988281 175.519531 117.421875 C 174.871094 117.144531 174.226562 116.75 173.820312 116.234375 C 173.636719 116 173.546875 115.796875 173.476562 115.511719 C 173.457031 115.441406 173.449219 115.328125 173.457031 115.148438 C 173.460938 115.058594 173.496094 114.898438 173.554688 114.722656 C 173.800781 113.992188 172.652344 113.679688 172.40625 114.40625 " fill-opacity="1" fill-rule="nonzero"/></g><g clip-path="url(#c36ee7000c)"><path fill="#000000" d="M 194.664062 114.40625 C 194.109375 116.054688 195.296875 117.453125 196.664062 118.203125 C 198.269531 119.082031 200.230469 119.425781 202.039062 119.167969 C 203.792969 118.917969 205.835938 117.636719 205.664062 115.617188 C 205.484375 113.539062 203.367188 112.117188 201.46875 111.800781 C 200.15625 111.582031 198.71875 111.71875 197.453125 112.121094 C 196.261719 112.5 195.125 113.183594 194.664062 114.40625 C 194.550781 114.707031 194.789062 115.0625 195.082031 115.140625 C 195.414062 115.234375 195.699219 115.027344 195.8125 114.722656 C 196.089844 113.984375 196.925781 113.5625 197.625 113.324219 C 198.578125 112.996094 199.601562 112.867188 200.605469 112.902344 C 202.085938 112.957031 203.976562 113.804688 204.410156 115.347656 C 204.582031 115.953125 204.40625 116.554688 203.917969 117.042969 C 203.390625 117.566406 202.769531 117.820312 202.058594 117.960938 C 200.679688 118.230469 199.078125 117.988281 197.777344 117.421875 C 197.128906 117.144531 196.484375 116.75 196.078125 116.234375 C 195.894531 116 195.800781 115.796875 195.734375 115.511719 C 195.714844 115.441406 195.703125 115.328125 195.714844 115.148438 C 195.71875 115.058594 195.753906 114.898438 195.8125 114.722656 C 196.058594 113.992188 194.910156 113.679688 194.664062 114.40625 " fill-opacity="1" fill-rule="nonzero"/></g><path fill="#000000" d="M 154.472656 64.238281 C 149.101562 66.71875 142.921875 67.410156 137.125 66.246094 C 135.46875 65.914062 133.847656 65.433594 132.277344 64.8125 C 131.980469 64.695312 131.625 64.941406 131.546875 65.230469 C 131.453125 65.570312 131.660156 65.847656 131.960938 65.964844 C 137.71875 68.242188 144.191406 68.585938 150.171875 67.035156 C 151.859375 66.597656 153.496094 66 155.074219 65.269531 C 155.367188 65.136719 155.441406 64.710938 155.289062 64.453125 C 155.113281 64.152344 154.765625 64.101562 154.472656 64.238281 " fill-opacity="1" fill-rule="nonzero"/><path fill="#000000" d="M 121.769531 63.316406 C 121.214844 64.964844 122.402344 66.363281 123.769531 67.113281 C 125.375 67.992188 127.339844 68.335938 129.148438 68.078125 C 130.898438 67.828125 132.945312 66.546875 132.769531 64.527344 C 132.589844 62.449219 130.476562 61.027344 128.574219 60.710938 C 127.261719 60.492188 125.828125 60.628906 124.5625 61.03125 C 123.367188 61.410156 122.230469 62.09375 121.769531 63.316406 C 121.65625 63.617188 121.898438 63.972656 122.1875 64.050781 C 122.523438 64.144531 122.804688 63.9375 122.921875 63.632812 C 123.199219 62.894531 124.03125 62.472656 124.730469 62.230469 C 125.683594 61.90625 126.707031 61.773438 127.710938 61.8125 C 129.191406 61.867188 131.082031 62.714844 131.519531 64.257812 C 131.691406 64.863281 131.515625 65.464844 131.027344 65.953125 C 130.496094 66.476562 129.875 66.730469 129.167969 66.871094 C 127.785156 67.140625 126.1875 66.898438 124.882812 66.332031 C 124.234375 66.054688 123.589844 65.660156 123.1875 65.144531 C 123.003906 64.910156 122.910156 64.707031 122.839844 64.421875 C 122.824219 64.351562 122.8125 64.238281 122.820312 64.058594 C 122.824219 63.96875 122.859375 63.808594 122.921875 63.632812 C 123.167969 62.902344 122.015625 62.589844 121.769531 63.316406 " fill-opacity="1" fill-rule="nonzero"/><path fill="#000000" d="M 229.226562 77.917969 C 230.878906 77.433594 232.230469 78.621094 232.929688 80.023438 C 233.742188 81.660156 234.015625 83.609375 233.714844 85.414062 C 233.417969 87.167969 232.097656 89.179688 230.097656 88.992188 C 227.988281 88.796875 226.652344 86.582031 226.386719 84.664062 C 226.199219 83.328125 226.402344 81.855469 226.871094 80.589844 C 227.300781 79.4375 228.007812 78.324219 229.226562 77.917969 C 229.957031 77.675781 230.269531 78.832031 229.542969 79.070312 C 228.792969 79.324219 228.332031 80.113281 228.058594 80.8125 C 227.691406 81.75 227.515625 82.777344 227.511719 83.785156 C 227.507812 85.269531 228.265625 87.253906 229.820312 87.730469 C 231.242188 88.164062 232.238281 86.628906 232.507812 85.394531 C 232.8125 83.992188 232.613281 82.417969 232.097656 81.074219 C 231.84375 80.421875 231.496094 79.828125 230.988281 79.382812 C 230.578125 79.027344 230.09375 78.910156 229.542969 79.070312 C 228.808594 79.289062 228.492188 78.136719 229.226562 77.917969 " fill-opacity="1" fill-rule="nonzero"/><path fill="#000000" d="M 218.75 59.097656 C 223.007812 63.179688 226.46875 68.101562 228.855469 73.5 C 229.539062 75.046875 230.140625 76.628906 230.652344 78.238281 C 230.882812 78.972656 229.734375 79.289062 229.503906 78.558594 C 227.765625 73.074219 224.953125 67.929688 221.261719 63.523438 C 220.210938 62.269531 219.089844 61.074219 217.910156 59.945312 C 217.355469 59.410156 218.199219 58.566406 218.75 59.097656 " fill-opacity="1" fill-rule="nonzero"/><path fill="#000000" d="M 45.734375 113.144531 C 45.179688 114.792969 46.367188 116.195312 47.734375 116.941406 C 49.339844 117.820312 51.300781 118.167969 53.109375 117.910156 C 54.863281 117.660156 56.90625 116.375 56.734375 114.359375 C 56.554688 112.28125 54.4375 110.859375 52.539062 110.539062 C 51.226562 110.320312 49.789062 110.457031 48.523438 110.859375 C 47.332031 111.242188 46.195312 111.921875 45.734375 113.144531 C 45.621094 113.449219 45.859375 113.800781 46.152344 113.882812 C 46.484375 113.972656 46.769531 113.765625 46.882812 113.464844 C 47.160156 112.722656 47.996094 112.300781 48.695312 112.0625 C 49.648438 111.734375 50.671875 111.605469 51.675781 111.640625 C 53.15625 111.695312 55.046875 112.546875 55.480469 114.089844 C 55.652344 114.695312 55.476562 115.296875 54.988281 115.78125 C 54.460938 116.308594 53.839844 116.5625 53.128906 116.703125 C 51.75 116.972656 50.148438 116.726562 48.847656 116.164062 C 48.199219 115.882812 47.554688 115.488281 47.148438 114.976562 C 46.964844 114.742188 46.871094 114.535156 46.804688 114.25 C 46.785156 114.183594 46.773438 114.066406 46.785156 113.886719 C 46.789062 113.800781 46.824219 113.640625 46.882812 113.464844 C 47.128906 112.734375 45.980469 112.421875 45.734375 113.144531 " fill-opacity="1" fill-rule="nonzero"/><path fill="#000000" d="M 79.726562 113.144531 C 79.167969 114.792969 80.359375 116.195312 81.722656 116.941406 C 83.332031 117.820312 85.292969 118.167969 87.101562 117.910156 C 88.851562 117.660156 90.898438 116.375 90.726562 114.359375 C 90.542969 112.28125 88.429688 110.859375 86.53125 110.539062 C 85.21875 110.320312 83.78125 110.457031 82.515625 110.859375 C 81.320312 111.242188 80.1875 111.921875 79.726562 113.144531 C 79.613281 113.449219 79.851562 113.800781 80.140625 113.882812 C 80.476562 113.972656 80.761719 113.765625 80.875 113.464844 C 81.152344 112.722656 81.988281 112.300781 82.6875 112.0625 C 83.636719 111.734375 84.664062 111.605469 85.667969 111.640625 C 87.148438 111.695312 89.039062 112.546875 89.472656 114.089844 C 89.644531 114.695312 89.46875 115.296875 88.980469 115.78125 C 88.449219 116.308594 87.832031 116.5625 87.121094 116.703125 C 85.742188 116.972656 84.140625 116.726562 82.839844 116.164062 C 82.191406 115.882812 81.546875 115.488281 81.140625 114.976562 C 80.957031 114.742188 80.863281 114.535156 80.792969 114.25 C 80.777344 114.183594 80.765625 114.066406 80.773438 113.886719 C 80.78125 113.800781 80.816406 113.640625 80.875 113.464844 C 81.121094 112.734375 79.972656 112.421875 79.726562 113.144531 " fill-opacity="1" fill-rule="nonzero"/><path fill="#000000" d="M 58.675781 95.585938 C 57.640625 101.742188 56.605469 107.902344 55.570312 114.058594 C 55.519531 114.378906 55.65625 114.703125 55.988281 114.796875 C 56.273438 114.875 56.667969 114.699219 56.722656 114.378906 C 57.757812 108.21875 58.789062 102.0625 59.824219 95.902344 C 59.878906 95.585938 59.742188 95.257812 59.410156 95.167969 C 59.121094 95.089844 58.730469 95.265625 58.675781 95.585938 " fill-opacity="1" fill-rule="nonzero"/><path fill="#000000" d="M 75.726562 94.972656 C 76.730469 99.800781 77.738281 104.628906 78.746094 109.453125 C 79.03125 110.824219 79.316406 112.191406 79.601562 113.5625 C 79.757812 114.316406 80.90625 113.996094 80.75 113.246094 C 79.742188 108.417969 78.738281 103.589844 77.730469 98.761719 C 77.445312 97.390625 77.160156 96.023438 76.875 94.65625 C 76.71875 93.902344 75.566406 94.21875 75.726562 94.972656 " fill-opacity="1" fill-rule="nonzero"/><path fill="#000000" d="M 119.53125 65.121094 C 118.972656 66.769531 120.164062 68.167969 121.53125 68.917969 C 123.136719 69.796875 125.097656 70.140625 126.90625 69.882812 C 128.65625 69.636719 130.703125 68.351562 130.527344 66.332031 C 130.351562 64.253906 128.234375 62.832031 126.335938 62.515625 C 125.023438 62.296875 123.585938 62.433594 122.320312 62.835938 C 121.128906 63.214844 119.992188 63.898438 119.53125 65.121094 C 119.417969 65.421875 119.65625 65.777344 119.945312 65.855469 C 120.28125 65.949219 120.566406 65.742188 120.679688 65.4375 C 120.957031 64.699219 121.792969 64.277344 122.492188 64.035156 C 123.441406 63.710938 124.46875 63.578125 125.472656 63.617188 C 126.953125 63.671875 128.84375 64.519531 129.277344 66.0625 C 129.449219 66.667969 129.273438 67.269531 128.785156 67.757812 C 128.257812 68.285156 127.636719 68.535156 126.925781 68.675781 C 125.546875 68.945312 123.945312 68.699219 122.644531 68.136719 C 121.996094 67.859375 121.351562 67.464844 120.945312 66.949219 C 120.761719 66.714844 120.667969 66.511719 120.597656 66.226562 C 120.582031 66.15625 120.570312 66.039062 120.578125 65.863281 C 120.585938 65.773438 120.621094 65.613281 120.679688 65.4375 C 120.925781 64.707031 119.777344 64.394531 119.53125 65.121094 " fill-opacity="1" fill-rule="nonzero"/><path fill="#000000" d="M 100.019531 61.601562 C 104.234375 65.070312 109.5625 67.058594 115.011719 67.226562 C 116.558594 67.273438 118.101562 67.160156 119.632812 66.914062 C 119.949219 66.863281 120.125 66.464844 120.046875 66.175781 C 119.953125 65.839844 119.632812 65.707031 119.3125 65.761719 C 114.257812 66.574219 108.945312 65.613281 104.453125 63.167969 C 103.183594 62.480469 101.976562 61.675781 100.863281 60.757812 C 100.613281 60.550781 100.261719 60.511719 100.019531 60.757812 C 99.808594 60.96875 99.769531 61.394531 100.019531 61.601562 " fill-opacity="1" fill-rule="nonzero"/><g clip-path="url(#a237f3e98c)"><path fill="#000000" d="M 22.988281 80.285156 C 21.335938 79.796875 19.988281 80.984375 19.289062 82.386719 C 18.476562 84.023438 18.199219 85.976562 18.503906 87.777344 C 18.796875 89.53125 20.121094 91.542969 22.121094 91.355469 C 24.226562 91.164062 25.5625 88.949219 25.832031 87.027344 C 26.015625 85.691406 25.8125 84.21875 25.34375 82.957031 C 24.917969 81.800781 24.207031 80.6875 22.988281 80.285156 C 22.261719 80.039062 21.949219 81.195312 22.671875 81.4375 C 23.425781 81.6875 23.882812 82.476562 24.160156 83.175781 C 24.527344 84.113281 24.703125 85.144531 24.707031 86.148438 C 24.707031 87.632812 23.949219 89.621094 22.398438 90.09375 C 20.972656 90.527344 19.980469 88.992188 19.710938 87.757812 C 19.402344 86.355469 19.601562 84.78125 20.121094 83.4375 C 20.371094 82.785156 20.722656 82.191406 21.230469 81.746094 C 21.640625 81.390625 22.125 81.273438 22.671875 81.4375 C 23.410156 81.652344 23.726562 80.5 22.988281 80.285156 " fill-opacity="1" fill-rule="nonzero"/></g><path fill="#000000" d="M 33.464844 61.460938 C 29.207031 65.542969 25.746094 70.464844 23.359375 75.867188 C 22.675781 77.410156 22.078125 78.992188 21.566406 80.601562 C 21.332031 81.335938 22.484375 81.652344 22.714844 80.921875 C 24.453125 75.4375 27.265625 70.292969 30.957031 65.890625 C 32.007812 64.632812 33.125 63.441406 34.308594 62.308594 C 34.863281 61.773438 34.019531 60.929688 33.464844 61.460938 " fill-opacity="1" fill-rule="nonzero"/><path fill="#000000" d="M 51.15625 41.847656 C 49.925781 42.882812 48.605469 43.785156 47.210938 44.542969 C 46.179688 45.105469 45.113281 45.574219 44.066406 46.097656 C 43.105469 46.574219 42.191406 47.128906 41.375 47.863281 C 40.40625 48.738281 39.640625 49.855469 39.011719 51.035156 C 37.460938 53.960938 36.574219 57.265625 36.347656 60.625 C 36.136719 63.824219 36.527344 67.136719 37.660156 70.113281 C 38.761719 73.03125 40.5625 75.613281 43.042969 77.320312 C 45.777344 79.195312 49.121094 79.761719 52.285156 79.113281 C 55.429688 78.472656 58.375 76.5625 60.164062 73.664062 C 61.9375 70.792969 62.460938 67.125 61.824219 63.769531 C 61.1875 60.429688 59.289062 57.414062 56.472656 55.808594 C 53.726562 54.246094 50.359375 53.964844 47.421875 55.039062 C 45.96875 55.566406 44.613281 56.421875 43.519531 57.589844 C 42.265625 58.929688 41.375 60.632812 40.832031 62.4375 C 39.675781 66.277344 40.117188 70.460938 41.441406 74.179688 C 42.84375 78.121094 45.070312 81.714844 47.425781 85.058594 C 49.617188 88.175781 52.078125 91.089844 55.003906 93.425781 C 57.820312 95.675781 61.078125 97.265625 64.582031 97.679688 C 68.609375 98.15625 72.589844 96.949219 76.238281 95.1875 C 78.121094 94.277344 79.933594 93.210938 81.71875 92.09375 C 83.347656 91.074219 84.96875 90.035156 86.554688 88.933594 C 89.46875 86.914062 92.34375 84.578125 94.242188 81.390625 C 96.230469 78.039062 96.703125 74.046875 95.921875 70.195312 C 95.121094 66.230469 93.175781 62.59375 90.792969 59.5 C 88.453125 56.46875 85.644531 53.828125 82.484375 51.835938 C 79.371094 49.878906 75.894531 48.554688 72.296875 48.191406 C 68.894531 47.847656 65.375 48.390625 62.210938 49.800781 C 59.050781 51.207031 56.214844 53.457031 54.234375 56.488281 C 52.316406 59.421875 51.3125 63.050781 51.304688 66.628906 C 51.292969 70.191406 52.296875 73.738281 54.363281 76.535156 C 56.335938 79.207031 59.214844 80.972656 62.269531 81.761719 C 65.394531 82.566406 68.722656 82.425781 71.804688 81.464844 C 75.089844 80.4375 78.023438 78.40625 80.457031 75.835938 C 82.984375 73.167969 84.976562 69.929688 86.492188 66.492188 C 88.039062 62.992188 89.183594 59.242188 89.78125 55.414062 C 90.382812 51.554688 90.453125 47.53125 89.523438 43.722656 C 88.601562 39.929688 86.621094 36.5625 83.78125 34.109375 C 80.929688 31.648438 77.496094 30.085938 73.980469 29.113281 C 70.101562 28.042969 66.027344 27.605469 62.039062 28.042969 C 58.199219 28.46875 54.40625 29.6875 51.121094 31.914062 C 48.230469 33.875 45.730469 36.554688 43.984375 39.730469 C 42.28125 42.824219 41.296875 46.441406 41.464844 50.058594 C 41.625 53.519531 42.738281 56.957031 44.652344 59.742188 C 46.53125 62.472656 49.21875 64.675781 52.328125 65.441406 C 55.21875 66.148438 58.3125 65.605469 60.917969 64.121094 C 63.441406 62.6875 65.558594 60.261719 66.3125 57.242188 C 67.21875 53.597656 66.015625 49.710938 63.765625 46.929688 C 61.265625 43.839844 57.503906 42.34375 53.769531 42.214844 C 50.28125 42.089844 46.800781 43.140625 43.789062 45.023438 C 40.90625 46.824219 38.4375 49.375 36.570312 52.351562 C 34.621094 55.460938 33.40625 59.019531 32.953125 62.738281 C 32.46875 66.738281 32.882812 70.859375 34.023438 74.699219 C 35.140625 78.457031 36.945312 82.007812 39.359375 84.976562 C 41.5625 87.683594 44.296875 89.917969 47.300781 91.480469 C 50.277344 93.03125 53.554688 93.957031 56.871094 93.9375 C 60.25 93.914062 63.539062 92.84375 66.367188 90.847656 C 69.414062 88.691406 71.839844 85.675781 73.875 82.445312 C 76.050781 78.996094 77.929688 75.265625 79.351562 71.386719 C 80.808594 67.414062 81.761719 63.101562 81.433594 58.808594 C 81.140625 54.960938 79.804688 51.363281 77.457031 48.445312 C 75.300781 45.773438 72.417969 43.78125 69.285156 42.742188 C 66.105469 41.691406 62.6875 41.707031 59.523438 42.824219 C 56.308594 43.957031 53.425781 46.097656 51.203125 48.839844 C 48.871094 51.722656 47.292969 55.226562 46.625 58.992188 C 45.902344 63.085938 46.183594 67.359375 47.308594 71.339844 C 48.382812 75.144531 50.226562 78.652344 52.640625 81.648438 C 54.949219 84.515625 57.789062 86.90625 60.921875 88.625 C 64.027344 90.328125 67.40625 91.359375 70.878906 91.640625 C 74.277344 91.914062 77.730469 91.476562 80.992188 90.421875 C 84.277344 89.359375 87.402344 87.675781 90.128906 85.425781 C 92.890625 83.152344 95.226562 80.335938 96.996094 77.101562 C 98.777344 73.847656 99.984375 70.226562 100.582031 66.507812 C 101.1875 62.75 101.191406 58.90625 100.566406 55.152344 C 99.949219 51.472656 98.691406 47.929688 96.878906 44.746094 C 95.117188 41.648438 92.859375 38.875 90.257812 36.574219 C 87.628906 34.253906 84.679688 32.394531 81.507812 31.089844 C 78.277344 29.761719 74.824219 29.039062 71.363281 29.035156 C 67.734375 29.03125 64.089844 29.804688 60.796875 31.472656 C 57.59375 33.09375 54.839844 35.617188 52.894531 38.816406 C 50.996094 41.9375 49.898438 45.59375 49.609375 49.3125 C 49.320312 52.992188 49.875 56.71875 51.25 60.101562 C 52.570312 63.363281 54.648438 66.28125 57.1875 68.546875 C 59.707031 70.796875 62.703125 72.457031 65.921875 73.152344 C 69.132812 73.851562 72.460938 73.554688 75.519531 72.273438 C 78.539062 71.007812 81.269531 68.914062 83.328125 66.203125 C 85.390625 63.480469 86.765625 60.195312 87.066406 56.675781 C 87.375 53.089844 86.519531 49.453125 84.894531 46.332031 C 83.253906 43.183594 80.8125 40.503906 77.90625 38.710938 C 74.863281 36.832031 71.316406 36.011719 67.824219 36.175781 C 64.273438 36.339844 60.769531 37.476562 57.703125 39.410156 C 54.597656 41.371094 52.007812 44.167969 50.078125 47.4375 C 48.140625 50.71875 46.867188 54.464844 46.300781 58.304688 C 45.757812 62.015625 45.851562 65.800781 46.621094 69.46875 C 47.34375 72.921875 48.644531 76.246094 50.398438 79.238281 C 52.144531 82.226562 54.347656 84.917969 56.917969 87.113281 C 59.488281 89.308594 62.402344 91.023438 65.546875 92.054688 C 68.582031 93.050781 71.800781 93.367188 74.957031 93.035156 C 78.109375 92.703125 81.183594 91.769531 84.046875 90.300781 C 86.871094 88.855469 89.476562 86.867188 91.648438 84.441406 C 93.828125 82.007812 95.5625 79.121094 96.667969 75.953125 C 97.738281 72.882812 98.167969 69.554688 98.023438 66.285156 C 97.878906 62.984375 97.167969 59.742188 95.964844 56.707031 C 94.777344 53.722656 93.085938 50.953125 90.960938 48.648438 C 88.785156 46.285156 86.144531 44.425781 83.230469 43.316406 C 80.070312 42.113281 76.589844 41.796875 73.296875 42.488281 C 70.039062 43.175781 66.980469 44.964844 64.882812 47.777344 C 62.65625 50.761719 61.589844 54.507812 61.285156 58.289062 C 60.96875 62.277344 61.433594 66.453125 62.621094 70.242188 C 63.835938 74.117188 65.980469 77.660156 69.207031 79.898438 C 72.140625 81.925781 75.835938 82.695312 79.160156 81.378906 C 82.199219 80.167969 84.625 77.542969 86.09375 74.460938 C 87.71875 71.054688 88.085938 67.25 87.4375 63.5 C 86.738281 59.46875 84.921875 55.714844 82.660156 52.457031 C 80.4375 49.261719 77.757812 46.246094 74.503906 44.285156 C 71.441406 42.441406 67.859375 41.753906 64.480469 42.945312 C 61.335938 44.050781 58.746094 46.492188 56.835938 49.359375 C 54.839844 52.363281 53.613281 55.878906 53.101562 59.523438 C 52.554688 63.398438 52.738281 67.367188 53.613281 71.171875 C 54.484375 74.964844 56.042969 78.597656 58.226562 81.722656 C 60.421875 84.863281 63.253906 87.613281 66.628906 89.183594 C 69.847656 90.679688 73.386719 90.964844 76.738281 89.789062 C 79.921875 88.667969 82.726562 86.4375 84.765625 83.582031 C 86.734375 80.824219 87.964844 77.492188 88.035156 73.996094 C 88.101562 70.84375 87.292969 67.554688 85.390625 65.109375 C 83.410156 62.566406 80.308594 61.46875 77.3125 62.234375 C 74.214844 63.027344 71.546875 65.617188 70.71875 68.972656 C 69.863281 72.429688 70.878906 76.277344 73.105469 78.890625 C 75.503906 81.707031 79.21875 82.746094 82.648438 82.136719 C 86.082031 81.53125 88.960938 79.160156 90.75 75.988281 C 92.535156 72.820312 93.269531 69.007812 93.046875 65.324219 C 92.773438 60.863281 91.289062 56.613281 89.417969 52.667969 C 87.726562 49.105469 85.777344 45.558594 83.152344 42.703125 C 81.882812 41.320312 80.433594 40.105469 78.824219 39.222656 C 77.070312 38.265625 75.175781 37.722656 73.226562 37.492188 C 69.222656 37.023438 65.179688 37.886719 61.289062 38.84375 C 57.984375 39.652344 54.660156 40.519531 51.511719 41.902344 C 48.542969 43.203125 45.660156 44.980469 43.5625 47.648438 C 41.160156 50.710938 40.085938 54.640625 40.292969 58.628906 C 40.515625 62.875 42.066406 66.863281 44.273438 70.34375 C 46.441406 73.753906 49.148438 76.777344 52.027344 79.496094 C 54.847656 82.160156 57.921875 84.535156 61.226562 86.449219 C 64.488281 88.335938 67.984375 89.789062 71.613281 90.574219 C 75.0625 91.320312 78.59375 91.480469 82.070312 90.871094 C 85.273438 90.308594 88.386719 89.121094 91.210938 87.394531 C 93.980469 85.703125 96.5 83.464844 98.460938 80.746094 C 100.457031 77.976562 101.863281 74.753906 102.453125 71.289062 C 103.089844 67.507812 102.792969 63.613281 101.777344 59.941406 C 100.738281 56.191406 99.007812 52.6875 96.890625 49.527344 C 94.734375 46.304688 92.179688 43.394531 89.339844 40.867188 C 86.328125 38.183594 83.023438 35.832031 79.441406 34.136719 C 75.886719 32.457031 72.042969 31.410156 68.144531 31.523438 C 64.71875 31.617188 61.378906 32.632812 58.367188 34.382812 C 55.433594 36.089844 52.839844 38.460938 50.683594 41.195312 C 48.464844 44 46.691406 47.183594 45.402344 50.597656 C 43.894531 54.578125 43.054688 58.875 42.902344 63.167969 C 42.75 67.550781 43.339844 71.996094 44.769531 76.109375 C 45.984375 79.609375 47.804688 82.851562 50.113281 85.640625 C 52.40625 88.410156 55.207031 90.730469 58.328125 92.304688 C 61.597656 93.949219 65.183594 94.757812 68.785156 94.695312 C 72.421875 94.632812 76.039062 93.703125 79.308594 91.976562 C 82.523438 90.277344 85.324219 87.769531 87.507812 84.710938 C 89.675781 81.675781 91.234375 78.128906 92.035156 74.394531 C 92.828125 70.707031 92.910156 66.792969 92.050781 63.109375 C 91.214844 59.53125 89.425781 56.109375 86.53125 54.03125 C 84.117188 52.296875 81.125 51.875 78.316406 52.484375 C 75.476562 53.101562 72.800781 54.753906 70.824219 57.035156 C 69.84375 58.171875 69.015625 59.476562 68.445312 60.902344 C 67.796875 62.519531 67.445312 64.269531 67.257812 66.011719 C 66.917969 69.21875 67.421875 72.523438 68.988281 75.304688 C 70.394531 77.789062 72.511719 79.6875 74.859375 81.066406 C 75.46875 81.421875 76.011719 80.417969 75.402344 80.0625 C 72.804688 78.535156 70.539062 76.367188 69.285156 73.429688 C 68.074219 70.605469 68.003906 67.371094 68.589844 64.363281 C 68.890625 62.820312 69.332031 61.347656 70.089844 59.992188 C 70.796875 58.726562 71.710938 57.613281 72.757812 56.660156 C 74.777344 54.820312 77.367188 53.59375 80.015625 53.402344 C 82.839844 53.195312 85.519531 54.238281 87.53125 56.410156 C 89.835938 58.898438 91.054688 62.414062 91.4375 65.859375 C 92.238281 73.0625 89.800781 80.558594 85.226562 85.824219 C 80.453125 91.320312 73.414062 94.046875 66.492188 93.453125 C 59.792969 92.882812 53.742188 88.949219 49.664062 83.25 C 45.117188 76.894531 43.375 68.757812 44.132812 60.832031 C 44.84375 53.414062 47.707031 46.214844 52.46875 40.78125 C 54.65625 38.285156 57.230469 36.183594 60.121094 34.734375 C 63.140625 33.214844 66.460938 32.53125 69.785156 32.707031 C 73.453125 32.902344 77.03125 34.109375 80.308594 35.851562 C 83.648438 37.628906 86.757812 39.941406 89.558594 42.585938 C 94.769531 47.503906 99.230469 53.898438 100.988281 61.222656 C 101.824219 64.699219 101.984375 68.359375 101.242188 71.871094 C 100.570312 75.082031 99.160156 78.070312 97.203125 80.585938 C 93.226562 85.699219 87.34375 88.898438 81.265625 89.832031 C 74.449219 90.882812 67.445312 88.792969 61.480469 85.273438 C 58.316406 83.410156 55.367188 81.128906 52.664062 78.554688 C 49.90625 75.9375 47.285156 73.035156 45.203125 69.757812 C 43.128906 66.484375 41.609375 62.75 41.378906 58.75 C 41.15625 54.988281 42.109375 51.234375 44.414062 48.359375 C 46.425781 45.851562 49.15625 44.164062 51.980469 42.945312 C 54.984375 41.648438 58.140625 40.816406 61.285156 40.035156 C 65.019531 39.113281 68.859375 38.265625 72.710938 38.601562 C 74.5625 38.765625 76.414062 39.246094 78.089844 40.125 C 79.636719 40.941406 81.015625 42.058594 82.238281 43.363281 C 84.78125 46.070312 86.648438 49.449219 88.292969 52.84375 C 90.082031 56.550781 91.570312 60.546875 91.925781 64.742188 C 92.226562 68.285156 91.664062 71.929688 90.019531 75.039062 C 88.402344 78.097656 85.761719 80.363281 82.515625 80.988281 C 79.308594 81.605469 75.832031 80.539062 73.675781 77.839844 C 71.710938 75.382812 70.933594 71.785156 71.921875 68.691406 C 72.875 65.71875 75.609375 63.511719 78.488281 63.1875 C 81.292969 62.871094 83.84375 64.410156 85.3125 66.960938 C 86.765625 69.492188 87.214844 72.660156 86.847656 75.585938 C 86.441406 78.847656 84.898438 81.902344 82.808594 84.265625 C 80.632812 86.730469 77.789062 88.527344 74.675781 89.15625 C 71.355469 89.824219 67.988281 88.898438 65.121094 87.039062 C 59.171875 83.175781 55.390625 75.996094 54.234375 68.726562 C 53.121094 61.707031 54.390625 53.941406 58.84375 48.496094 C 60.839844 46.046875 63.457031 44.136719 66.484375 43.617188 C 69.886719 43.035156 73.207031 44.507812 75.914062 46.648438 C 78.792969 48.933594 81.238281 52.003906 83.140625 55.25 C 85.070312 58.539062 86.476562 62.277344 86.660156 66.199219 C 86.820312 69.621094 85.9375 72.972656 84.09375 75.769531 C 82.382812 78.375 79.753906 80.441406 76.765625 80.8125 C 73.347656 81.238281 69.984375 79.578125 67.585938 77.011719 C 64.945312 74.191406 63.515625 70.324219 62.808594 66.445312 C 61.5625 59.589844 62.203125 51.089844 67.652344 46.445312 C 72.625 42.203125 80.027344 42.515625 85.417969 45.617188 C 90.488281 48.53125 94.136719 53.820312 95.847656 59.683594 C 97.582031 65.628906 97.371094 72.25 94.722656 77.847656 C 92.003906 83.59375 87.101562 87.941406 81.546875 90.195312 C 75.875 92.492188 69.582031 92.640625 63.925781 90.210938 C 58.109375 87.714844 53.316406 82.753906 50.347656 76.851562 C 47.246094 70.683594 46.234375 63.492188 47.695312 56.636719 C 49.25 49.363281 53.464844 42.820312 59.769531 39.542969 C 65.753906 36.429688 73.144531 36.445312 78.691406 40.621094 C 83.820312 44.484375 87.097656 51.570312 85.75 58.335938 C 84.464844 64.8125 79.398438 70.007812 73.566406 71.75 C 67.4375 73.574219 60.980469 71.089844 56.550781 66.359375 C 54.347656 64.011719 52.617188 61.125 51.621094 57.953125 C 50.574219 54.613281 50.34375 50.976562 50.898438 47.503906 C 51.457031 44.023438 52.773438 40.644531 54.84375 37.890625 C 56.984375 35.042969 59.871094 32.953125 63.058594 31.710938 C 69.378906 29.253906 76.519531 29.902344 82.609375 32.828125 C 88.507812 35.660156 93.570312 40.539062 96.671875 46.675781 C 99.863281 52.988281 100.714844 60.5 99.308594 67.511719 C 97.890625 74.570312 94.199219 80.960938 88.691406 85.125 C 83.363281 89.160156 76.714844 91.117188 70.230469 90.414062 C 63.566406 89.695312 57.351562 85.925781 53.066406 80.402344 C 48.480469 74.488281 46.230469 66.320312 47.777344 58.703125 C 49.171875 51.839844 53.917969 45.832031 60.230469 43.804688 C 63.261719 42.832031 66.464844 42.933594 69.457031 44.023438 C 72.410156 45.101562 75.066406 47.097656 77.035156 49.703125 C 79.191406 52.558594 80.296875 56.128906 80.410156 59.792969 C 80.539062 63.886719 79.527344 67.921875 78.089844 71.675781 C 76.679688 75.359375 74.835938 78.917969 72.730469 82.195312 C 70.769531 85.25 68.410156 88.109375 65.464844 90.085938 C 62.75 91.910156 59.640625 92.828125 56.445312 92.769531 C 53.351562 92.714844 50.292969 91.800781 47.535156 90.3125 C 44.667969 88.765625 42.089844 86.613281 39.992188 83.992188 C 37.710938 81.136719 36.011719 77.703125 34.980469 74.105469 C 33.929688 70.4375 33.554688 66.527344 34.035156 62.714844 C 34.476562 59.210938 35.664062 55.867188 37.5 52.9375 C 41.132812 47.152344 47.300781 43.101562 53.882812 43.382812 C 57.402344 43.53125 60.878906 45 63.171875 47.960938 C 65.183594 50.566406 66.144531 54.210938 65.117188 57.488281 C 63.347656 63.109375 56.667969 65.820312 51.671875 64.035156 C 45.867188 61.960938 42.339844 55.128906 42.53125 48.734375 C 42.738281 41.667969 47.285156 35.421875 52.882812 32.152344 C 59.546875 28.257812 67.757812 28.320312 74.882812 30.589844 C 78.1875 31.644531 81.429688 33.273438 83.980469 35.824219 C 86.523438 38.363281 88.105469 41.703125 88.765625 45.351562 C 89.425781 49 89.203125 52.808594 88.511719 56.429688 C 87.820312 60.0625 86.664062 63.621094 85.097656 66.921875 C 82.117188 73.195312 77.277344 78.851562 70.742188 80.566406 C 65.015625 82.070312 58.15625 80.546875 54.667969 75.035156 C 51.140625 69.464844 51.824219 61.414062 55.730469 56.269531 C 59.898438 50.785156 66.964844 48.4375 73.355469 49.496094 C 80.246094 50.636719 86.382812 55.226562 90.609375 61.101562 C 92.792969 64.132812 94.507812 67.710938 95.0625 71.53125 C 95.597656 75.214844 94.746094 78.863281 92.652344 81.820312 C 90.617188 84.6875 87.769531 86.769531 84.953125 88.648438 C 81.730469 90.800781 78.441406 92.957031 74.9375 94.539062 C 71.453125 96.109375 67.628906 97.078125 63.851562 96.40625 C 60.546875 95.824219 57.515625 94.128906 54.910156 91.894531 C 52.203125 89.570312 49.890625 86.738281 47.847656 83.738281 C 45.636719 80.5 43.5 77.03125 42.257812 73.210938 C 41.09375 69.644531 40.804688 65.695312 42.078125 62.113281 C 42.652344 60.496094 43.582031 59.007812 44.8125 57.890625 C 45.902344 56.902344 47.230469 56.238281 48.609375 55.878906 C 51.40625 55.148438 54.5 55.675781 56.886719 57.4375 C 59.308594 59.222656 60.714844 62.296875 60.964844 65.410156 C 61.222656 68.617188 60.355469 71.953125 58.308594 74.339844 C 56.257812 76.734375 53.277344 78.066406 50.277344 78.203125 C 47.363281 78.335938 44.488281 77.328125 42.269531 75.257812 C 40.191406 73.320312 38.808594 70.667969 38.066406 67.828125 C 37.296875 64.871094 37.171875 61.707031 37.640625 58.675781 C 37.875 57.140625 38.261719 55.628906 38.800781 54.179688 C 39.328125 52.757812 39.988281 51.332031 40.863281 50.113281 C 42.054688 48.460938 43.625 47.558594 45.386719 46.722656 C 46.375 46.253906 47.367188 45.785156 48.320312 45.234375 C 49.589844 44.496094 50.78125 43.628906 51.917969 42.667969 C 52.148438 42.476562 52.105469 42.050781 51.917969 41.847656 C 51.691406 41.601562 51.386719 41.652344 51.15625 41.847656 " fill-opacity="1" fill-rule="nonzero"/></svg>